<svg width="682" height="216" viewBox="0 0 682 216" fill="none" xmlns="http://www.w3.org/2000/svg">
<g clip-path="url(#clip0_40_830)" filter="url(#filter0_d_40_830)">
<mask id="path-1-outside-1_40_830" maskUnits="userSpaceOnUse" x="331" y="24" width="342" height="158" fill="black">
<rect fill="white" x="331" y="24" width="342" height="158"/>
<path d="M339.671 171V34.1875H364.049V171H339.671ZM395.446 171V34.1875H424.549L490.717 135.678V34.1875H515.343V171H485.742L419.823 69.2613V171H395.446ZM603.852 94.6338H663.552V156.821C651.446 167.269 634.448 172.741 612.558 173.239C596.969 173.239 583.786 169.839 573.007 163.04C562.227 156.075 554.184 147.203 548.878 136.424C543.571 125.645 540.918 114.368 540.918 102.594C540.918 90.3221 543.737 78.8796 549.375 68.2662C555.014 57.6529 563.222 49.1125 574.002 42.645C584.947 36.1775 597.799 32.9438 612.558 32.9438C628.809 32.9438 643.983 37.0067 658.079 45.1325L661.562 47.1225L651.363 65.7787L647.88 64.2863C643.237 61.7987 637.847 59.7258 631.712 58.0675C625.742 56.2433 619.606 55.3312 613.304 55.3312C605.012 55.3312 597.218 57.2383 589.922 61.0525C582.625 64.7008 576.738 70.0904 572.26 77.2213C567.783 84.1863 565.544 92.3121 565.544 101.599C565.544 110.885 567.7 119.26 572.012 126.723C576.489 134.185 582.542 140.072 590.17 144.384C597.964 148.53 606.754 150.603 616.538 150.603C621.844 150.603 626.156 150.188 629.473 149.359C632.955 148.53 636.355 147.203 639.672 145.379V116.275H603.852V94.6338Z"/>
</mask>
<path d="M339.671 171H331.671V179H339.671V171ZM339.671 34.1875V26.1875H331.671V34.1875H339.671ZM364.049 34.1875H372.049V26.1875H364.049V34.1875ZM364.049 171V179H372.049V171H364.049ZM347.671 171V34.1875H331.671V171H347.671ZM339.671 42.1875H364.049V26.1875H339.671V42.1875ZM356.049 34.1875V171H372.049V34.1875H356.049ZM364.049 163H339.671V179H364.049V163ZM395.446 171H387.446V179H395.446V171ZM395.446 34.1875V26.1875H387.446V34.1875H395.446ZM424.549 34.1875L431.251 29.8184L428.884 26.1875H424.549V34.1875ZM490.717 135.678L484.015 140.047L498.717 162.596V135.678H490.717ZM490.717 34.1875V26.1875H482.717V34.1875H490.717ZM515.343 34.1875H523.343V26.1875H515.343V34.1875ZM515.343 171V179H523.343V171H515.343ZM485.742 171L479.028 175.35L481.393 179H485.742V171ZM419.823 69.2613L426.537 64.9112L411.823 42.2018V69.2613H419.823ZM419.823 171V179H427.823V171H419.823ZM403.446 171V34.1875H387.446V171H403.446ZM395.446 42.1875H424.549V26.1875H395.446V42.1875ZM417.848 38.5566L484.015 140.047L497.418 131.308L431.251 29.8184L417.848 38.5566ZM498.717 135.678V34.1875H482.717V135.678H498.717ZM490.717 42.1875H515.343V26.1875H490.717V42.1875ZM507.343 34.1875V171H523.343V34.1875H507.343ZM515.343 163H485.742V179H515.343V163ZM492.456 166.65L426.537 64.9112L413.109 73.6114L479.028 175.35L492.456 166.65ZM411.823 69.2613V171H427.823V69.2613H411.823ZM419.823 163H395.446V179H419.823V163ZM603.852 94.6338V86.6338H595.852V94.6338H603.852ZM663.552 94.6338H671.552V86.6338H663.552V94.6338ZM663.552 156.821L668.778 162.878L671.552 160.484V156.821H663.552ZM612.558 173.239V181.239H612.649L612.74 181.237L612.558 173.239ZM573.007 163.04L568.665 169.759L568.702 169.783L568.738 169.806L573.007 163.04ZM548.878 136.424L541.7 139.957L548.878 136.424ZM549.375 68.2663L542.31 64.513L549.375 68.2663ZM574.002 42.645L569.932 35.7576L569.909 35.7712L569.886 35.7851L574.002 42.645ZM658.079 45.1325L654.084 52.0633L654.097 52.0709L654.11 52.0785L658.079 45.1325ZM661.562 47.1225L668.581 50.9599L672.347 44.0715L665.531 40.1766L661.562 47.1225ZM651.363 65.7787L648.211 73.1319L654.895 75.9961L658.382 69.6161L651.363 65.7787ZM647.88 64.2862L644.102 71.3381L644.409 71.5024L644.729 71.6394L647.88 64.2862ZM631.712 58.0675L629.374 65.7183L629.498 65.7564L629.624 65.7904L631.712 58.0675ZM589.922 61.0525L593.499 68.2079L593.564 68.1757L593.628 68.1423L589.922 61.0525ZM572.26 77.2213L578.99 81.5473L579.013 81.5115L579.035 81.4754L572.26 77.2213ZM572.012 126.723L565.085 130.725L565.118 130.782L565.152 130.838L572.012 126.723ZM590.17 144.384L586.234 151.348L586.323 151.399L586.413 151.447L590.17 144.384ZM629.473 149.359L627.62 141.576L627.576 141.587L627.532 141.598L629.473 149.359ZM639.672 145.379L643.527 152.388L647.672 150.109V145.379H639.672ZM639.672 116.275H647.672V108.275H639.672V116.275ZM603.852 116.275H595.852V124.275H603.852V116.275ZM603.852 102.634H663.552V86.6338H603.852V102.634ZM655.552 94.6338V156.821H671.552V94.6338H655.552ZM658.325 150.765C648.066 159.618 633.092 164.77 612.376 165.241L612.74 181.237C635.803 180.713 654.825 174.92 668.778 162.878L658.325 150.765ZM612.558 165.239C598.142 165.239 586.517 162.104 577.275 156.274L568.738 169.806C581.054 177.575 595.797 181.239 612.558 181.239V165.239ZM577.348 156.321C567.699 150.086 560.678 142.281 556.055 132.89L541.7 139.957C547.69 152.124 556.756 162.064 568.665 169.759L577.348 156.321ZM556.055 132.89C551.278 123.187 548.918 113.117 548.918 102.594H532.918C532.918 115.619 535.864 128.102 541.7 139.957L556.055 132.89ZM548.918 102.594C548.918 91.6021 551.429 81.4519 556.44 72.0195L542.31 64.513C536.045 76.3072 532.918 89.0421 532.918 102.594H548.918ZM556.44 72.0195C561.364 62.7509 568.525 55.2601 578.117 49.505L569.886 35.7851C557.919 42.9649 548.663 52.5549 542.31 64.513L556.44 72.0195ZM578.071 49.5324C587.597 43.9035 598.997 40.9438 612.558 40.9438V24.9438C596.6 24.9438 582.296 28.4515 569.932 35.7576L578.071 49.5324ZM612.558 40.9438C627.405 40.9438 641.201 44.6371 654.084 52.0633L662.074 38.2017C646.765 29.3762 630.214 24.9438 612.558 24.9438V40.9438ZM654.11 52.0785L657.592 54.0685L665.531 40.1766L662.048 38.1866L654.11 52.0785ZM654.542 43.2851L644.343 61.9414L658.382 69.6161L668.581 50.9599L654.542 43.2851ZM654.514 58.4256L651.032 56.9331L644.729 71.6394L648.211 73.1319L654.514 58.4256ZM651.658 57.2344C646.382 54.4079 640.406 52.1302 633.799 50.3446L629.624 65.7904C635.289 67.3215 640.092 69.1896 644.102 71.3381L651.658 57.2344ZM634.049 50.4167C627.314 48.3588 620.39 47.3312 613.304 47.3312V63.3312C618.821 63.3312 624.169 64.1279 629.374 65.7183L634.049 50.4167ZM613.304 47.3312C603.731 47.3312 594.664 49.5462 586.215 53.9627L593.628 68.1423C599.772 64.9304 606.294 63.3312 613.304 63.3312V47.3312ZM586.344 53.8971C577.692 58.223 570.716 64.6363 565.485 72.9671L579.035 81.4754C582.759 75.5445 587.558 71.1787 593.499 68.2079L586.344 53.8971ZM565.531 72.8952C560.126 81.3034 557.544 90.9705 557.544 101.599H573.544C573.544 93.6537 575.44 87.0691 578.99 81.5473L565.531 72.8952ZM557.544 101.599C557.544 112.178 560.016 121.952 565.085 130.725L578.938 122.72C575.384 116.568 573.544 109.593 573.544 101.599H557.544ZM565.152 130.838C570.346 139.496 577.41 146.361 586.234 151.348L594.107 137.419C587.674 133.783 582.632 128.874 578.871 122.607L565.152 130.838ZM586.413 151.447C595.485 156.272 605.588 158.602 616.538 158.602V142.602C607.919 142.602 600.444 140.787 593.927 137.321L586.413 151.447ZM616.538 158.602C622.181 158.602 627.214 158.17 631.413 157.12L627.532 141.598C625.098 142.206 621.507 142.602 616.538 142.602V158.602ZM631.326 157.141C635.546 156.136 639.617 154.539 643.527 152.388L635.816 138.369C633.093 139.867 630.364 140.923 627.62 141.576L631.326 157.141ZM647.672 145.379V116.275H631.672V145.379H647.672ZM639.672 108.275H603.852V124.275H639.672V108.275ZM611.852 116.275V94.6338H595.852V116.275H611.852Z" fill="url(#paint0_linear_40_830)" mask="url(#path-1-outside-1_40_830)"/>
<g filter="url(#filter1_f_40_830)">
<mask id="path-3-outside-2_40_830" maskUnits="userSpaceOnUse" x="331" y="24" width="342" height="158" fill="black">
<rect fill="white" x="331" y="24" width="342" height="158"/>
<path d="M339.671 171V34.1875H364.049V171H339.671ZM395.446 171V34.1875H424.549L490.717 135.678V34.1875H515.343V171H485.742L419.823 69.2613V171H395.446ZM603.852 94.6338H663.552V156.821C651.446 167.269 634.448 172.741 612.558 173.239C596.969 173.239 583.786 169.839 573.007 163.04C562.227 156.075 554.184 147.203 548.878 136.424C543.571 125.645 540.918 114.368 540.918 102.594C540.918 90.3221 543.737 78.8796 549.375 68.2662C555.014 57.6529 563.222 49.1125 574.002 42.645C584.947 36.1775 597.799 32.9438 612.558 32.9438C628.809 32.9438 643.983 37.0067 658.079 45.1325L661.562 47.1225L651.363 65.7787L647.88 64.2863C643.237 61.7987 637.847 59.7258 631.712 58.0675C625.742 56.2433 619.606 55.3312 613.304 55.3312C605.012 55.3312 597.218 57.2383 589.922 61.0525C582.625 64.7008 576.738 70.0904 572.26 77.2213C567.783 84.1863 565.544 92.3121 565.544 101.599C565.544 110.885 567.7 119.26 572.012 126.723C576.489 134.185 582.542 140.072 590.17 144.384C597.964 148.53 606.754 150.603 616.538 150.603C621.844 150.603 626.156 150.188 629.473 149.359C632.955 148.53 636.355 147.203 639.672 145.379V116.275H603.852V94.6338Z"/>
</mask>
<path d="M339.671 171H331.671V179H339.671V171ZM339.671 34.1875V26.1875H331.671V34.1875H339.671ZM364.049 34.1875H372.049V26.1875H364.049V34.1875ZM364.049 171V179H372.049V171H364.049ZM347.671 171V34.1875H331.671V171H347.671ZM339.671 42.1875H364.049V26.1875H339.671V42.1875ZM356.049 34.1875V171H372.049V34.1875H356.049ZM364.049 163H339.671V179H364.049V163ZM395.446 171H387.446V179H395.446V171ZM395.446 34.1875V26.1875H387.446V34.1875H395.446ZM424.549 34.1875L431.251 29.8184L428.884 26.1875H424.549V34.1875ZM490.717 135.678L484.015 140.047L498.717 162.596V135.678H490.717ZM490.717 34.1875V26.1875H482.717V34.1875H490.717ZM515.343 34.1875H523.343V26.1875H515.343V34.1875ZM515.343 171V179H523.343V171H515.343ZM485.742 171L479.028 175.35L481.393 179H485.742V171ZM419.823 69.2613L426.537 64.9112L411.823 42.2018V69.2613H419.823ZM419.823 171V179H427.823V171H419.823ZM403.446 171V34.1875H387.446V171H403.446ZM395.446 42.1875H424.549V26.1875H395.446V42.1875ZM417.848 38.5566L484.015 140.047L497.418 131.308L431.251 29.8184L417.848 38.5566ZM498.717 135.678V34.1875H482.717V135.678H498.717ZM490.717 42.1875H515.343V26.1875H490.717V42.1875ZM507.343 34.1875V171H523.343V34.1875H507.343ZM515.343 163H485.742V179H515.343V163ZM492.456 166.65L426.537 64.9112L413.109 73.6114L479.028 175.35L492.456 166.65ZM411.823 69.2613V171H427.823V69.2613H411.823ZM419.823 163H395.446V179H419.823V163ZM603.852 94.6338V86.6338H595.852V94.6338H603.852ZM663.552 94.6338H671.552V86.6338H663.552V94.6338ZM663.552 156.821L668.778 162.878L671.552 160.484V156.821H663.552ZM612.558 173.239V181.239H612.649L612.74 181.237L612.558 173.239ZM573.007 163.04L568.665 169.759L568.702 169.783L568.738 169.806L573.007 163.04ZM548.878 136.424L541.7 139.957L548.878 136.424ZM549.375 68.2663L542.31 64.513L549.375 68.2663ZM574.002 42.645L569.932 35.7576L569.909 35.7712L569.886 35.7851L574.002 42.645ZM658.079 45.1325L654.084 52.0633L654.097 52.0709L654.11 52.0785L658.079 45.1325ZM661.562 47.1225L668.581 50.9599L672.347 44.0715L665.531 40.1766L661.562 47.1225ZM651.363 65.7787L648.211 73.1319L654.895 75.9961L658.382 69.6161L651.363 65.7787ZM647.88 64.2862L644.102 71.3381L644.409 71.5024L644.729 71.6394L647.88 64.2862ZM631.712 58.0675L629.374 65.7183L629.498 65.7564L629.624 65.7904L631.712 58.0675ZM589.922 61.0525L593.499 68.2079L593.564 68.1757L593.628 68.1423L589.922 61.0525ZM572.26 77.2213L578.99 81.5473L579.013 81.5115L579.035 81.4754L572.26 77.2213ZM572.012 126.723L565.085 130.725L565.118 130.782L565.152 130.838L572.012 126.723ZM590.17 144.384L586.234 151.348L586.323 151.399L586.413 151.447L590.17 144.384ZM629.473 149.359L627.62 141.576L627.576 141.587L627.532 141.598L629.473 149.359ZM639.672 145.379L643.527 152.388L647.672 150.109V145.379H639.672ZM639.672 116.275H647.672V108.275H639.672V116.275ZM603.852 116.275H595.852V124.275H603.852V116.275ZM603.852 102.634H663.552V86.6338H603.852V102.634ZM655.552 94.6338V156.821H671.552V94.6338H655.552ZM658.325 150.765C648.066 159.618 633.092 164.77 612.376 165.241L612.74 181.237C635.803 180.713 654.825 174.92 668.778 162.878L658.325 150.765ZM612.558 165.239C598.142 165.239 586.517 162.104 577.275 156.274L568.738 169.806C581.054 177.575 595.797 181.239 612.558 181.239V165.239ZM577.348 156.321C567.699 150.086 560.678 142.281 556.055 132.89L541.7 139.957C547.69 152.124 556.756 162.064 568.665 169.759L577.348 156.321ZM556.055 132.89C551.278 123.187 548.918 113.117 548.918 102.594H532.918C532.918 115.619 535.864 128.102 541.7 139.957L556.055 132.89ZM548.918 102.594C548.918 91.6021 551.429 81.4519 556.44 72.0195L542.31 64.513C536.045 76.3072 532.918 89.0421 532.918 102.594H548.918ZM556.44 72.0195C561.364 62.7509 568.525 55.2601 578.117 49.505L569.886 35.7851C557.919 42.9649 548.663 52.5549 542.31 64.513L556.44 72.0195ZM578.071 49.5324C587.597 43.9035 598.997 40.9438 612.558 40.9438V24.9438C596.6 24.9438 582.296 28.4515 569.932 35.7576L578.071 49.5324ZM612.558 40.9438C627.405 40.9438 641.201 44.6371 654.084 52.0633L662.074 38.2017C646.765 29.3762 630.214 24.9438 612.558 24.9438V40.9438ZM654.11 52.0785L657.592 54.0685L665.531 40.1766L662.048 38.1866L654.11 52.0785ZM654.542 43.2851L644.343 61.9414L658.382 69.6161L668.581 50.9599L654.542 43.2851ZM654.514 58.4256L651.032 56.9331L644.729 71.6394L648.211 73.1319L654.514 58.4256ZM651.658 57.2344C646.382 54.4079 640.406 52.1302 633.799 50.3446L629.624 65.7904C635.289 67.3215 640.092 69.1896 644.102 71.3381L651.658 57.2344ZM634.049 50.4167C627.314 48.3588 620.39 47.3312 613.304 47.3312V63.3312C618.821 63.3312 624.169 64.1279 629.374 65.7183L634.049 50.4167ZM613.304 47.3312C603.731 47.3312 594.664 49.5462 586.215 53.9627L593.628 68.1423C599.772 64.9304 606.294 63.3312 613.304 63.3312V47.3312ZM586.344 53.8971C577.692 58.223 570.716 64.6363 565.485 72.9671L579.035 81.4754C582.759 75.5445 587.558 71.1787 593.499 68.2079L586.344 53.8971ZM565.531 72.8952C560.126 81.3034 557.544 90.9705 557.544 101.599H573.544C573.544 93.6537 575.44 87.0691 578.99 81.5473L565.531 72.8952ZM557.544 101.599C557.544 112.178 560.016 121.952 565.085 130.725L578.938 122.72C575.384 116.568 573.544 109.593 573.544 101.599H557.544ZM565.152 130.838C570.346 139.496 577.41 146.361 586.234 151.348L594.107 137.419C587.674 133.783 582.632 128.874 578.871 122.607L565.152 130.838ZM586.413 151.447C595.485 156.272 605.588 158.602 616.538 158.602V142.602C607.919 142.602 600.444 140.787 593.927 137.321L586.413 151.447ZM616.538 158.602C622.181 158.602 627.214 158.17 631.413 157.12L627.532 141.598C625.098 142.206 621.507 142.602 616.538 142.602V158.602ZM631.326 157.141C635.546 156.136 639.617 154.539 643.527 152.388L635.816 138.369C633.093 139.867 630.364 140.923 627.62 141.576L631.326 157.141ZM647.672 145.379V116.275H631.672V145.379H647.672ZM639.672 108.275H603.852V124.275H639.672V108.275ZM611.852 116.275V94.6338H595.852V116.275H611.852Z" fill="url(#paint1_linear_40_830)" mask="url(#path-3-outside-2_40_830)"/>
</g>
<g filter="url(#filter2_dddddd_40_830)">
<mask id="path-5-outside-3_40_830" maskUnits="userSpaceOnUse" x="4" y="24" width="141" height="158" fill="black">
<rect fill="white" x="4" y="24" width="141" height="158"/>
<path d="M75.8837 94.6338H135.584V156.821C123.478 167.269 106.48 172.741 84.59 173.239C69.0017 173.239 55.8179 169.839 45.0387 163.04C34.2596 156.075 26.2167 147.203 20.91 136.424C15.6033 125.645 12.95 114.368 12.95 102.594C12.95 90.3221 15.7692 78.8796 21.4075 68.2662C27.0458 57.6529 35.2546 49.1125 46.0338 42.645C56.9787 36.1775 69.8308 32.9438 84.59 32.9438C100.842 32.9438 116.015 37.0067 130.111 45.1325L133.594 47.1225L123.395 65.7787L119.912 64.2863C115.269 61.7987 109.88 59.7258 103.744 58.0675C97.7737 56.2433 91.6379 55.3312 85.3362 55.3312C77.0446 55.3312 69.2504 57.2383 61.9537 61.0525C54.6571 64.7008 48.77 70.0904 44.2925 77.2213C39.815 84.1863 37.5762 92.3121 37.5762 101.599C37.5762 110.885 39.7321 119.26 44.0437 126.723C48.5212 134.185 54.5742 140.072 62.2025 144.384C69.9967 148.53 78.7858 150.603 88.57 150.603C93.8767 150.603 98.1883 150.188 101.505 149.359C104.987 148.53 108.387 147.203 111.704 145.379V116.275H75.8837V94.6338Z"/>
</mask>
<path d="M75.8837 94.6338V86.6338H67.8837V94.6338H75.8837ZM135.584 94.6338H143.584V86.6338H135.584V94.6338ZM135.584 156.821L140.811 162.878L143.584 160.484V156.821H135.584ZM84.59 173.239V181.239H84.6809L84.7718 181.237L84.59 173.239ZM45.0387 163.04L40.697 169.759L40.7337 169.783L40.7707 169.806L45.0387 163.04ZM20.91 136.424L13.7326 139.957L20.91 136.424ZM21.4075 68.2663L14.3426 64.513L21.4075 68.2663ZM46.0337 42.645L41.9639 35.7576L41.9408 35.7712L41.9178 35.7851L46.0337 42.645ZM130.111 45.1325L126.116 52.0633L126.129 52.0709L126.142 52.0785L130.111 45.1325ZM133.594 47.1225L140.613 50.9599L144.379 44.0715L137.563 40.1766L133.594 47.1225ZM123.395 65.7787L120.244 73.1319L126.927 75.9961L130.415 69.6161L123.395 65.7787ZM119.912 64.2862L116.135 71.3381L116.441 71.5024L116.761 71.6394L119.912 64.2862ZM103.744 58.0675L101.406 65.7183L101.531 65.7564L101.656 65.7904L103.744 58.0675ZM61.9537 61.0525L65.5315 68.2079L65.5959 68.1757L65.6598 68.1423L61.9537 61.0525ZM44.2925 77.2213L51.0219 81.5473L51.045 81.5115L51.0676 81.4754L44.2925 77.2213ZM44.0438 126.723L37.1168 130.725L37.1498 130.782L37.1838 130.838L44.0438 126.723ZM62.2025 144.384L58.266 151.348L58.3552 151.399L58.4456 151.447L62.2025 144.384ZM101.505 149.359L99.652 141.576L99.6083 141.587L99.5647 141.598L101.505 149.359ZM111.704 145.379L115.559 152.388L119.704 150.109V145.379H111.704ZM111.704 116.275H119.704V108.275H111.704V116.275ZM75.8837 116.275H67.8837V124.275H75.8837V116.275ZM75.8837 102.634H135.584V86.6338H75.8837V102.634ZM127.584 94.6338V156.821H143.584V94.6338H127.584ZM130.357 150.765C120.099 159.618 105.124 164.77 84.4082 165.241L84.7718 181.237C107.836 180.713 126.857 174.92 140.811 162.878L130.357 150.765ZM84.59 165.239C70.1741 165.239 58.5496 162.104 49.3068 156.274L40.7707 169.806C53.0862 177.575 67.8292 181.239 84.59 181.239V165.239ZM49.3805 156.321C39.7313 150.086 32.7107 142.281 28.0874 132.89L13.7326 139.957C19.7226 152.124 28.7879 162.064 40.697 169.759L49.3805 156.321ZM28.0874 132.89C23.3104 123.187 20.95 113.117 20.95 102.594H4.95C4.95 115.619 7.89622 128.102 13.7326 139.957L28.0874 132.89ZM20.95 102.594C20.95 91.6021 23.4614 81.4519 28.4724 72.0195L14.3426 64.513C8.0769 76.3072 4.95 89.0421 4.95 102.594H20.95ZM28.4724 72.0195C33.3964 62.7509 40.5577 55.2601 50.1497 49.505L41.9178 35.7851C29.9514 42.9649 20.6953 52.5549 14.3426 64.513L28.4724 72.0195ZM50.1036 49.5324C59.6294 43.9035 71.0291 40.9438 84.59 40.9438V24.9438C68.6326 24.9438 54.3281 28.4515 41.9639 35.7576L50.1036 49.5324ZM84.59 40.9438C99.4375 40.9438 113.234 44.6371 126.116 52.0633L134.107 38.2017C118.797 29.3762 102.246 24.9438 84.59 24.9438V40.9438ZM126.142 52.0785L129.625 54.0685L137.563 40.1766L134.08 38.1866L126.142 52.0785ZM126.574 43.2851L116.375 61.9414L130.415 69.6161L140.613 50.9599L126.574 43.2851ZM126.546 58.4256L123.064 56.9331L116.761 71.6394L120.244 73.1319L126.546 58.4256ZM123.69 57.2344C118.414 54.4079 112.438 52.1302 105.831 50.3446L101.656 65.7904C107.321 67.3215 112.124 69.1896 116.135 71.3381L123.69 57.2344ZM106.081 50.4167C99.3466 48.3588 92.4225 47.3312 85.3363 47.3312V63.3312C90.8533 63.3312 96.2009 64.1279 101.406 65.7183L106.081 50.4167ZM85.3363 47.3312C75.7634 47.3312 66.6966 49.5462 58.2477 53.9627L65.6598 68.1423C71.8042 64.9304 78.3257 63.3312 85.3363 63.3312V47.3312ZM58.376 53.8971C49.7243 58.223 42.7483 64.6363 37.5174 72.9671L51.0676 81.4754C54.7917 75.5445 59.5899 71.1787 65.5315 68.2079L58.376 53.8971ZM37.5631 72.8952C32.1578 81.3034 29.5763 90.9705 29.5763 101.599H45.5762C45.5762 93.6537 47.4722 87.0691 51.0219 81.5473L37.5631 72.8952ZM29.5763 101.599C29.5763 112.178 32.048 121.952 37.1168 130.725L50.9707 122.72C47.4162 116.568 45.5762 109.593 45.5762 101.599H29.5763ZM37.1838 130.838C42.3782 139.496 49.442 146.361 58.266 151.348L66.139 137.419C59.7063 133.783 54.6643 128.874 50.9037 122.607L37.1838 130.838ZM58.4456 151.447C67.5176 156.272 77.6201 158.602 88.57 158.602V142.602C79.9515 142.602 72.4758 140.787 65.9594 137.321L58.4456 151.447ZM88.57 158.602C94.2136 158.602 99.2465 158.17 103.445 157.12L99.5647 141.598C97.1302 142.206 93.5397 142.602 88.57 142.602V158.602ZM103.358 157.141C107.579 156.136 111.649 154.539 115.559 152.388L107.848 138.369C105.125 139.867 102.396 140.923 99.652 141.576L103.358 157.141ZM119.704 145.379V116.275H103.704V145.379H119.704ZM111.704 108.275H75.8837V124.275H111.704V108.275ZM83.8837 116.275V94.6338H67.8837V116.275H83.8837Z" fill="url(#paint2_linear_40_830)" mask="url(#path-5-outside-3_40_830)"/>
</g>
<g filter="url(#filter3_f_40_830)">
<mask id="path-7-outside-4_40_830" maskUnits="userSpaceOnUse" x="4" y="24" width="141" height="158" fill="black">
<rect fill="white" x="4" y="24" width="141" height="158"/>
<path d="M75.8837 94.6338H135.584V156.821C123.478 167.269 106.48 172.741 84.59 173.239C69.0017 173.239 55.8179 169.839 45.0387 163.04C34.2596 156.075 26.2167 147.203 20.91 136.424C15.6033 125.645 12.95 114.368 12.95 102.594C12.95 90.3221 15.7692 78.8796 21.4075 68.2662C27.0458 57.6529 35.2546 49.1125 46.0338 42.645C56.9787 36.1775 69.8308 32.9438 84.59 32.9438C100.842 32.9438 116.015 37.0067 130.111 45.1325L133.594 47.1225L123.395 65.7787L119.912 64.2863C115.269 61.7987 109.88 59.7258 103.744 58.0675C97.7737 56.2433 91.6379 55.3312 85.3362 55.3312C77.0446 55.3312 69.2504 57.2383 61.9537 61.0525C54.6571 64.7008 48.77 70.0904 44.2925 77.2213C39.815 84.1863 37.5762 92.3121 37.5762 101.599C37.5762 110.885 39.7321 119.26 44.0437 126.723C48.5212 134.185 54.5742 140.072 62.2025 144.384C69.9967 148.53 78.7858 150.603 88.57 150.603C93.8767 150.603 98.1883 150.188 101.505 149.359C104.987 148.53 108.387 147.203 111.704 145.379V116.275H75.8837V94.6338Z"/>
</mask>
<path d="M75.8837 94.6338V86.6338H67.8837V94.6338H75.8837ZM135.584 94.6338H143.584V86.6338H135.584V94.6338ZM135.584 156.821L140.811 162.878L143.584 160.484V156.821H135.584ZM84.59 173.239V181.239H84.6809L84.7718 181.237L84.59 173.239ZM45.0387 163.04L40.697 169.759L40.7337 169.783L40.7707 169.806L45.0387 163.04ZM20.91 136.424L13.7326 139.957L20.91 136.424ZM21.4075 68.2663L14.3426 64.513L21.4075 68.2663ZM46.0337 42.645L41.9639 35.7576L41.9408 35.7712L41.9178 35.7851L46.0337 42.645ZM130.111 45.1325L126.116 52.0633L126.129 52.0709L126.142 52.0785L130.111 45.1325ZM133.594 47.1225L140.613 50.9599L144.379 44.0715L137.563 40.1766L133.594 47.1225ZM123.395 65.7787L120.244 73.1319L126.927 75.9961L130.415 69.6161L123.395 65.7787ZM119.912 64.2862L116.135 71.3381L116.441 71.5024L116.761 71.6394L119.912 64.2862ZM103.744 58.0675L101.406 65.7183L101.531 65.7564L101.656 65.7904L103.744 58.0675ZM61.9537 61.0525L65.5315 68.2079L65.5959 68.1757L65.6598 68.1423L61.9537 61.0525ZM44.2925 77.2213L51.0219 81.5473L51.045 81.5115L51.0676 81.4754L44.2925 77.2213ZM44.0438 126.723L37.1168 130.725L37.1498 130.782L37.1838 130.838L44.0438 126.723ZM62.2025 144.384L58.266 151.348L58.3552 151.399L58.4456 151.447L62.2025 144.384ZM101.505 149.359L99.652 141.576L99.6083 141.587L99.5647 141.598L101.505 149.359ZM111.704 145.379L115.559 152.388L119.704 150.109V145.379H111.704ZM111.704 116.275H119.704V108.275H111.704V116.275ZM75.8837 116.275H67.8837V124.275H75.8837V116.275ZM75.8837 102.634H135.584V86.6338H75.8837V102.634ZM127.584 94.6338V156.821H143.584V94.6338H127.584ZM130.357 150.765C120.099 159.618 105.124 164.77 84.4082 165.241L84.7718 181.237C107.836 180.713 126.857 174.92 140.811 162.878L130.357 150.765ZM84.59 165.239C70.1741 165.239 58.5496 162.104 49.3068 156.274L40.7707 169.806C53.0862 177.575 67.8292 181.239 84.59 181.239V165.239ZM49.3805 156.321C39.7313 150.086 32.7107 142.281 28.0874 132.89L13.7326 139.957C19.7226 152.124 28.7879 162.064 40.697 169.759L49.3805 156.321ZM28.0874 132.89C23.3104 123.187 20.95 113.117 20.95 102.594H4.95C4.95 115.619 7.89622 128.102 13.7326 139.957L28.0874 132.89ZM20.95 102.594C20.95 91.6021 23.4614 81.4519 28.4724 72.0195L14.3426 64.513C8.0769 76.3072 4.95 89.0421 4.95 102.594H20.95ZM28.4724 72.0195C33.3964 62.7509 40.5577 55.2601 50.1497 49.505L41.9178 35.7851C29.9514 42.9649 20.6953 52.5549 14.3426 64.513L28.4724 72.0195ZM50.1036 49.5324C59.6294 43.9035 71.0291 40.9438 84.59 40.9438V24.9438C68.6326 24.9438 54.3281 28.4515 41.9639 35.7576L50.1036 49.5324ZM84.59 40.9438C99.4375 40.9438 113.234 44.6371 126.116 52.0633L134.107 38.2017C118.797 29.3762 102.246 24.9438 84.59 24.9438V40.9438ZM126.142 52.0785L129.625 54.0685L137.563 40.1766L134.08 38.1866L126.142 52.0785ZM126.574 43.2851L116.375 61.9414L130.415 69.6161L140.613 50.9599L126.574 43.2851ZM126.546 58.4256L123.064 56.9331L116.761 71.6394L120.244 73.1319L126.546 58.4256ZM123.69 57.2344C118.414 54.4079 112.438 52.1302 105.831 50.3446L101.656 65.7904C107.321 67.3215 112.124 69.1896 116.135 71.3381L123.69 57.2344ZM106.081 50.4167C99.3466 48.3588 92.4225 47.3312 85.3363 47.3312V63.3312C90.8533 63.3312 96.2009 64.1279 101.406 65.7183L106.081 50.4167ZM85.3363 47.3312C75.7634 47.3312 66.6966 49.5462 58.2477 53.9627L65.6598 68.1423C71.8042 64.9304 78.3257 63.3312 85.3363 63.3312V47.3312ZM58.376 53.8971C49.7243 58.223 42.7483 64.6363 37.5174 72.9671L51.0676 81.4754C54.7917 75.5445 59.5899 71.1787 65.5315 68.2079L58.376 53.8971ZM37.5631 72.8952C32.1578 81.3034 29.5763 90.9705 29.5763 101.599H45.5762C45.5762 93.6537 47.4722 87.0691 51.0219 81.5473L37.5631 72.8952ZM29.5763 101.599C29.5763 112.178 32.048 121.952 37.1168 130.725L50.9707 122.72C47.4162 116.568 45.5762 109.593 45.5762 101.599H29.5763ZM37.1838 130.838C42.3782 139.496 49.442 146.361 58.266 151.348L66.139 137.419C59.7063 133.783 54.6643 128.874 50.9037 122.607L37.1838 130.838ZM58.4456 151.447C67.5176 156.272 77.6201 158.602 88.57 158.602V142.602C79.9515 142.602 72.4758 140.787 65.9594 137.321L58.4456 151.447ZM88.57 158.602C94.2136 158.602 99.2465 158.17 103.445 157.12L99.5647 141.598C97.1302 142.206 93.5397 142.602 88.57 142.602V158.602ZM103.358 157.141C107.579 156.136 111.649 154.539 115.559 152.388L107.848 138.369C105.125 139.867 102.396 140.923 99.652 141.576L103.358 157.141ZM119.704 145.379V116.275H103.704V145.379H119.704ZM111.704 108.275H75.8837V124.275H111.704V108.275ZM83.8837 116.275V94.6338H67.8837V116.275H83.8837Z" fill="url(#paint3_linear_40_830)" mask="url(#path-7-outside-4_40_830)"/>
</g>
<path d="M196.961 68.2278L203 39" stroke="url(#paint4_linear_40_830)" stroke-width="2.3"/>
<path d="M196.961 68.2278L210 87" stroke="url(#paint5_linear_40_830)" stroke-width="2.3"/>
<path d="M188 97L210 87" stroke="url(#paint6_linear_40_830)" stroke-width="2.3"/>
<path d="M188 97L210 121" stroke="url(#paint7_linear_40_830)" stroke-width="2.3"/>
<path d="M196.961 68.2278L188 97" stroke="url(#paint8_linear_40_830)" stroke-width="2.3"/>
<path d="M214 167L211 122" stroke="url(#paint9_linear_40_830)" stroke-width="2.3"/>
<path d="M267 84L278 52" stroke="url(#paint10_linear_40_830)" stroke-width="2.3"/>
<path d="M182 144L210 122" stroke="url(#paint11_linear_40_830)" stroke-width="2.3"/>
<path d="M197 68H175" stroke="url(#paint12_linear_40_830)" stroke-width="2.3"/>
<path d="M187 97L169 109" stroke="url(#paint13_linear_40_830)" stroke-width="2.3"/>
<path d="M186 116L169 109" stroke="url(#paint14_linear_40_830)" stroke-width="2.3"/>
<path d="M196.961 68.2278L235.416 36" stroke="url(#paint15_linear_40_830)" stroke-width="2.3"/>
<path d="M238 66L235.416 36" stroke="url(#paint16_linear_40_830)" stroke-width="2.3"/>
<path d="M261 38L235 36" stroke="url(#paint17_linear_40_830)" stroke-width="2.3"/>
<path d="M261.052 37.6962L279.364 51.2658" stroke="url(#paint18_linear_40_830)" stroke-width="2.3"/>
<path d="M303 89L279 51" stroke="url(#paint19_linear_40_830)" stroke-width="2.3"/>
<path d="M303 89L281 106" stroke="url(#paint20_linear_40_830)" stroke-width="2.3"/>
<path d="M264 121L280 106" stroke="url(#paint21_linear_40_830)" stroke-width="2.3"/>
<path d="M237 134L248 170" stroke="url(#paint22_linear_40_830)" stroke-width="2.3"/>
<path d="M237 134L214 167" stroke="url(#paint23_linear_40_830)" stroke-width="2.3"/>
<path d="M303.169 88.5823L294.013 136.076" stroke="url(#paint24_linear_40_830)" stroke-width="2.3"/>
<path d="M264 122L274 161" stroke="url(#paint25_linear_40_830)" stroke-width="2.3"/>
<path d="M264 122L294.013 136.076" stroke="url(#paint26_linear_40_830)" stroke-width="2.3"/>
<path d="M238 135L294.013 136.076" stroke="url(#paint27_linear_40_830)" stroke-width="2.3"/>
<path d="M237 134L274 161" stroke="url(#paint28_linear_40_830)" stroke-width="2.3"/>
<path d="M237 134L183 146" stroke="url(#paint29_linear_40_830)" stroke-width="2.3"/>
<path d="M185 116L182 144" stroke="url(#paint30_linear_40_830)" stroke-width="2.3"/>
<path d="M188 97L175 68" stroke="url(#paint31_linear_40_830)" stroke-width="2.3"/>
<path d="M186 116L211 122" stroke="url(#paint32_linear_40_830)" stroke-width="2.3"/>
<path d="M215 167L248 170" stroke="#792787" stroke-width="2.3"/>
<path d="M238 68L279 52" stroke="url(#paint33_linear_40_830)" stroke-width="2.3"/>
<path d="M303.169 88.5823L268 85" stroke="url(#paint34_linear_40_830)" stroke-width="2.3"/>
<path d="M237 68L203 39" stroke="url(#paint35_linear_40_830)" stroke-width="2.3"/>
<circle cx="203" cy="40" r="4" fill="#792887"/>
<circle cx="174" cy="66" r="4" fill="#792887"/>
<circle cx="211" cy="86" r="4" fill="#792887"/>
<circle cx="235" cy="37" r="4" fill="#792887"/>
<circle cx="235" cy="37" r="4" fill="#792887"/>
<circle cx="279" cy="51" r="4" fill="#792887"/>
<circle cx="169" cy="108" r="4" fill="#792887"/>
<circle cx="211" cy="121" r="4" fill="#792887"/>
<circle cx="182" cy="144" r="4" fill="#792887"/>
<circle cx="264" cy="86" r="4" fill="#792887"/>
<circle cx="280" cy="106" r="4" fill="#792887"/>
<circle cx="292" cy="135" r="4" fill="#792887"/>
<circle cx="273" cy="161" r="4" fill="#792887"/>
<circle cx="247" cy="170" r="4" fill="#792887"/>
<circle cx="214" cy="166" r="4" fill="#792887"/>
<circle cx="237" cy="134" r="4" fill="#27F2FD"/>
<circle cx="237" cy="68" r="4" fill="#27F2FD"/>
<circle cx="303" cy="89" r="4" fill="#27F2FD"/>
<circle cx="197" cy="68" r="4" fill="#27F2FD"/>
<circle cx="188" cy="97" r="4" fill="#27F2FD"/>
<circle cx="186" cy="116" r="4" fill="#27F2FD"/>
<circle cx="264" cy="121" r="4" fill="#27F2FD"/>
<g filter="url(#filter4_f_40_830)">
<path d="M196.961 68.2278L203 39" stroke="url(#paint36_linear_40_830)" stroke-width="2.3"/>
<path d="M196.961 68.2278L210 87" stroke="url(#paint37_linear_40_830)" stroke-width="2.3"/>
<path d="M188 97L210 87" stroke="url(#paint38_linear_40_830)" stroke-width="2.3"/>
<path d="M188 97L210 121" stroke="url(#paint39_linear_40_830)" stroke-width="2.3"/>
<path d="M196.961 68.2278L188 97" stroke="url(#paint40_linear_40_830)" stroke-width="2.3"/>
<path d="M214 167L211 122" stroke="url(#paint41_linear_40_830)" stroke-width="2.3"/>
<path d="M267 84L278 52" stroke="url(#paint42_linear_40_830)" stroke-width="2.3"/>
<path d="M182 144L210 122" stroke="url(#paint43_linear_40_830)" stroke-width="2.3"/>
<path d="M197 68H175" stroke="url(#paint44_linear_40_830)" stroke-width="2.3"/>
<path d="M187 97L169 109" stroke="url(#paint45_linear_40_830)" stroke-width="2.3"/>
<path d="M186 116L169 109" stroke="url(#paint46_linear_40_830)" stroke-width="2.3"/>
<path d="M196.961 68.2278L235.416 36" stroke="url(#paint47_linear_40_830)" stroke-width="2.3"/>
<path d="M238 66L235.416 36" stroke="url(#paint48_linear_40_830)" stroke-width="2.3"/>
<path d="M261 38L235 36" stroke="url(#paint49_linear_40_830)" stroke-width="2.3"/>
<path d="M261.052 37.6962L279.364 51.2658" stroke="url(#paint50_linear_40_830)" stroke-width="2.3"/>
<path d="M303 89L279 51" stroke="url(#paint51_linear_40_830)" stroke-width="2.3"/>
<path d="M303 89L281 106" stroke="url(#paint52_linear_40_830)" stroke-width="2.3"/>
<path d="M264 121L280 106" stroke="url(#paint53_linear_40_830)" stroke-width="2.3"/>
<path d="M237 134L248 170" stroke="url(#paint54_linear_40_830)" stroke-width="2.3"/>
<path d="M237 134L214 167" stroke="url(#paint55_linear_40_830)" stroke-width="2.3"/>
<path d="M303.169 88.5823L294.013 136.076" stroke="url(#paint56_linear_40_830)" stroke-width="2.3"/>
<path d="M264 122L274 161" stroke="url(#paint57_linear_40_830)" stroke-width="2.3"/>
<path d="M264 122L294.013 136.076" stroke="url(#paint58_linear_40_830)" stroke-width="2.3"/>
<path d="M238 135L294.013 136.076" stroke="url(#paint59_linear_40_830)" stroke-width="2.3"/>
<path d="M237 134L274 161" stroke="url(#paint60_linear_40_830)" stroke-width="2.3"/>
<path d="M237 134L183 146" stroke="url(#paint61_linear_40_830)" stroke-width="2.3"/>
<path d="M185 116L182 144" stroke="url(#paint62_linear_40_830)" stroke-width="2.3"/>
<path d="M188 97L175 68" stroke="url(#paint63_linear_40_830)" stroke-width="2.3"/>
<path d="M186 116L211 122" stroke="url(#paint64_linear_40_830)" stroke-width="2.3"/>
<path d="M215 167L248 170" stroke="#792787" stroke-width="2.3"/>
<path d="M238 68L279 52" stroke="url(#paint65_linear_40_830)" stroke-width="2.3"/>
<path d="M303.169 88.5823L268 85" stroke="url(#paint66_linear_40_830)" stroke-width="2.3"/>
<path d="M237 68L203 39" stroke="url(#paint67_linear_40_830)" stroke-width="2.3"/>
<circle cx="203" cy="40" r="4" fill="#792887"/>
<circle cx="174" cy="66" r="4" fill="#792887"/>
<circle cx="211" cy="86" r="4" fill="#792887"/>
<circle cx="235" cy="37" r="4" fill="#792887"/>
<circle cx="235" cy="37" r="4" fill="#792887"/>
<circle cx="279" cy="51" r="4" fill="#792887"/>
<circle cx="169" cy="108" r="4" fill="#792887"/>
<circle cx="211" cy="121" r="4" fill="#792887"/>
<circle cx="182" cy="144" r="4" fill="#792887"/>
<circle cx="264" cy="86" r="4" fill="#792887"/>
<circle cx="280" cy="106" r="4" fill="#792887"/>
<circle cx="292" cy="135" r="4" fill="#792887"/>
<circle cx="273" cy="161" r="4" fill="#792887"/>
<circle cx="247" cy="170" r="4" fill="#792887"/>
<circle cx="214" cy="166" r="4" fill="#792887"/>
<circle cx="237" cy="134" r="4" fill="#27F2FD"/>
<circle cx="237" cy="68" r="4" fill="#27F2FD"/>
<circle cx="303" cy="89" r="4" fill="#27F2FD"/>
<circle cx="197" cy="68" r="4" fill="#27F2FD"/>
<circle cx="188" cy="97" r="4" fill="#27F2FD"/>
<circle cx="186" cy="116" r="4" fill="#27F2FD"/>
<circle cx="264" cy="121" r="4" fill="#27F2FD"/>
</g>
</g>
<defs>
<filter id="filter0_d_40_830" x="-1" y="0" width="683" height="216" filterUnits="userSpaceOnUse" color-interpolation-filters="sRGB">
<feFlood flood-opacity="0" result="BackgroundImageFix"/>
<feColorMatrix in="SourceAlpha" type="matrix" values="0 0 0 0 0 0 0 0 0 0 0 0 0 0 0 0 0 0 127 0" result="hardAlpha"/>
<feOffset dy="4"/>
<feGaussianBlur stdDeviation="2"/>
<feComposite in2="hardAlpha" operator="out"/>
<feColorMatrix type="matrix" values="0 0 0 0 0 0 0 0 0 0 0 0 0 0 0 0 0 0 0.25 0"/>
<feBlend mode="normal" in2="BackgroundImageFix" result="effect1_dropShadow_40_830"/>
<feBlend mode="normal" in="SourceGraphic" in2="effect1_dropShadow_40_830" result="shape"/>
</filter>
<filter id="filter1_f_40_830" x="314.671" y="7.94376" width="374.676" height="190.295" filterUnits="userSpaceOnUse" color-interpolation-filters="sRGB">
<feFlood flood-opacity="0" result="BackgroundImageFix"/>
<feBlend mode="normal" in="SourceGraphic" in2="BackgroundImageFix" result="shape"/>
<feGaussianBlur stdDeviation="8.5" result="effect1_foregroundBlur_40_830"/>
</filter>
<filter id="filter2_dddddd_40_830" x="4.94995" y="24.9438" width="139.429" height="156.295" filterUnits="userSpaceOnUse" color-interpolation-filters="sRGB">
<feFlood flood-opacity="0" result="BackgroundImageFix"/>
<feColorMatrix in="SourceAlpha" type="matrix" values="0 0 0 0 0 0 0 0 0 0 0 0 0 0 0 0 0 0 127 0" result="hardAlpha"/>
<feOffset/>
<feColorMatrix type="matrix" values="0 0 0 0 1 0 0 0 0 1 0 0 0 0 1 0 0 0 1 0"/>
<feBlend mode="normal" in2="BackgroundImageFix" result="effect1_dropShadow_40_830"/>
<feColorMatrix in="SourceAlpha" type="matrix" values="0 0 0 0 0 0 0 0 0 0 0 0 0 0 0 0 0 0 127 0" result="hardAlpha"/>
<feOffset/>
<feColorMatrix type="matrix" values="0 0 0 0 1 0 0 0 0 1 0 0 0 0 1 0 0 0 1 0"/>
<feBlend mode="normal" in2="effect1_dropShadow_40_830" result="effect2_dropShadow_40_830"/>
<feColorMatrix in="SourceAlpha" type="matrix" values="0 0 0 0 0 0 0 0 0 0 0 0 0 0 0 0 0 0 127 0" result="hardAlpha"/>
<feOffset/>
<feColorMatrix type="matrix" values="0 0 0 0 1 0 0 0 0 1 0 0 0 0 1 0 0 0 1 0"/>
<feBlend mode="normal" in2="effect2_dropShadow_40_830" result="effect3_dropShadow_40_830"/>
<feColorMatrix in="SourceAlpha" type="matrix" values="0 0 0 0 0 0 0 0 0 0 0 0 0 0 0 0 0 0 127 0" result="hardAlpha"/>
<feOffset/>
<feColorMatrix type="matrix" values="0 0 0 0 1 0 0 0 0 1 0 0 0 0 1 0 0 0 1 0"/>
<feBlend mode="normal" in2="effect3_dropShadow_40_830" result="effect4_dropShadow_40_830"/>
<feColorMatrix in="SourceAlpha" type="matrix" values="0 0 0 0 0 0 0 0 0 0 0 0 0 0 0 0 0 0 127 0" result="hardAlpha"/>
<feOffset/>
<feColorMatrix type="matrix" values="0 0 0 0 1 0 0 0 0 1 0 0 0 0 1 0 0 0 1 0"/>
<feBlend mode="normal" in2="effect4_dropShadow_40_830" result="effect5_dropShadow_40_830"/>
<feColorMatrix in="SourceAlpha" type="matrix" values="0 0 0 0 0 0 0 0 0 0 0 0 0 0 0 0 0 0 127 0" result="hardAlpha"/>
<feOffset/>
<feColorMatrix type="matrix" values="0 0 0 0 1 0 0 0 0 1 0 0 0 0 1 0 0 0 1 0"/>
<feBlend mode="normal" in2="effect5_dropShadow_40_830" result="effect6_dropShadow_40_830"/>
<feBlend mode="normal" in="SourceGraphic" in2="effect6_dropShadow_40_830" result="shape"/>
</filter>
<filter id="filter3_f_40_830" x="-12.05" y="7.94376" width="173.429" height="190.295" filterUnits="userSpaceOnUse" color-interpolation-filters="sRGB">
<feFlood flood-opacity="0" result="BackgroundImageFix"/>
<feBlend mode="normal" in="SourceGraphic" in2="BackgroundImageFix" result="shape"/>
<feGaussianBlur stdDeviation="8.5" result="effect1_foregroundBlur_40_830"/>
</filter>
<filter id="filter4_f_40_830" x="141" y="9" width="190" height="189" filterUnits="userSpaceOnUse" color-interpolation-filters="sRGB">
<feFlood flood-opacity="0" result="BackgroundImageFix"/>
<feBlend mode="normal" in="SourceGraphic" in2="BackgroundImageFix" result="shape"/>
<feGaussianBlur stdDeviation="12" result="effect1_foregroundBlur_40_830"/>
</filter>
<linearGradient id="paint0_linear_40_830" x1="337.888" y1="139.398" x2="635.26" y2="140.468" gradientUnits="userSpaceOnUse">
<stop offset="0.0465045" stop-color="#14BFFB"/>
<stop offset="1" stop-color="#D300E5"/>
</linearGradient>
<linearGradient id="paint1_linear_40_830" x1="337.888" y1="139.398" x2="635.26" y2="140.468" gradientUnits="userSpaceOnUse">
<stop offset="0.0465045" stop-color="#14BFFB"/>
<stop offset="1" stop-color="#D300E5"/>
</linearGradient>
<linearGradient id="paint2_linear_40_830" x1="8.64923" y1="123" x2="129.615" y2="123.196" gradientUnits="userSpaceOnUse">
<stop offset="0.0465045" stop-color="#14BFFB"/>
</linearGradient>
<linearGradient id="paint3_linear_40_830" x1="8.64923" y1="123" x2="129.615" y2="123.196" gradientUnits="userSpaceOnUse">
<stop offset="0.0465045" stop-color="#14BFFB"/>
</linearGradient>
<linearGradient id="paint4_linear_40_830" x1="197.451" y1="68.329" x2="202.506" y2="39.5978" gradientUnits="userSpaceOnUse">
<stop stop-color="#25F5FF"/>
<stop offset="0.639459" stop-color="#792787"/>
</linearGradient>
<linearGradient id="paint5_linear_40_830" x1="196.55" y1="68.5131" x2="209.589" y2="87.2852" gradientUnits="userSpaceOnUse">
<stop stop-color="#25F5FF"/>
<stop offset="1" stop-color="#792787"/>
</linearGradient>
<linearGradient id="paint6_linear_40_830" x1="188.207" y1="97.4552" x2="210.207" y2="87.4552" gradientUnits="userSpaceOnUse">
<stop stop-color="#25F5FF"/>
<stop offset="1" stop-color="#792787"/>
</linearGradient>
<linearGradient id="paint7_linear_40_830" x1="187.631" y1="97.3379" x2="201.69" y2="113.041" gradientUnits="userSpaceOnUse">
<stop stop-color="#25F5FF"/>
<stop offset="1" stop-color="#792787"/>
</linearGradient>
<linearGradient id="paint8_linear_40_830" x1="196.484" y1="68.0792" x2="187.523" y2="96.8513" gradientUnits="userSpaceOnUse">
<stop stop-color="#25F5FF"/>
<stop offset="0.5" stop-color="#792787"/>
<stop offset="1" stop-color="#25F5FF"/>
</linearGradient>
<linearGradient id="paint9_linear_40_830" x1="214.499" y1="166.967" x2="211.039" y2="120.997" gradientUnits="userSpaceOnUse">
<stop stop-color="#792787"/>
<stop offset="0.360512" stop-color="#25F5FF"/>
<stop offset="0.720869" stop-color="#792787"/>
</linearGradient>
<linearGradient id="paint10_linear_40_830" x1="267.473" y1="84.1625" x2="278.473" y2="52.1625" gradientUnits="userSpaceOnUse">
<stop stop-color="#792787"/>
<stop offset="0.5" stop-color="#25F5FF"/>
<stop offset="1" stop-color="#792787"/>
</linearGradient>
<linearGradient id="paint11_linear_40_830" x1="182.309" y1="144.393" x2="210.309" y2="122.393" gradientUnits="userSpaceOnUse">
<stop stop-color="#792787"/>
<stop offset="0.395886" stop-color="#25F5FF"/>
<stop offset="0.717818" stop-color="#792787"/>
</linearGradient>
<linearGradient id="paint12_linear_40_830" x1="197" y1="67.5" x2="175" y2="67.5" gradientUnits="userSpaceOnUse">
<stop stop-color="#25F5FF"/>
<stop offset="1" stop-color="#792787"/>
</linearGradient>
<linearGradient id="paint13_linear_40_830" x1="186.723" y1="96.584" x2="168.723" y2="108.584" gradientUnits="userSpaceOnUse">
<stop stop-color="#25F5FF"/>
<stop offset="1" stop-color="#792787"/>
</linearGradient>
<linearGradient id="paint14_linear_40_830" x1="186.19" y1="115.538" x2="169.19" y2="108.538" gradientUnits="userSpaceOnUse">
<stop stop-color="#25F5FF"/>
<stop offset="1" stop-color="#792787"/>
</linearGradient>
<linearGradient id="paint15_linear_40_830" x1="197.31" y1="68.5855" x2="233.099" y2="33.6286" gradientUnits="userSpaceOnUse">
<stop stop-color="#25F5FF"/>
<stop offset="1" stop-color="#792787"/>
</linearGradient>
<linearGradient id="paint16_linear_40_830" x1="238.498" y1="65.9571" x2="235.914" y2="35.9571" gradientUnits="userSpaceOnUse">
<stop stop-color="#25F5FF"/>
<stop offset="1" stop-color="#792787"/>
</linearGradient>
<linearGradient id="paint17_linear_40_830" x1="261.038" y1="37.5015" x2="235.038" y2="35.5015" gradientUnits="userSpaceOnUse">
<stop stop-color="#25F5FF"/>
<stop offset="1" stop-color="#792787"/>
</linearGradient>
<linearGradient id="paint18_linear_40_830" x1="260.725" y1="38.0746" x2="277.926" y2="52.9303" gradientUnits="userSpaceOnUse">
<stop stop-color="#25F5FF"/>
<stop offset="1" stop-color="#792787"/>
</linearGradient>
<linearGradient id="paint19_linear_40_830" x1="303.423" y1="88.733" x2="279.423" y2="50.733" gradientUnits="userSpaceOnUse">
<stop stop-color="#25F5FF"/>
<stop offset="1" stop-color="#792787"/>
</linearGradient>
<linearGradient id="paint20_linear_40_830" x1="302.694" y1="88.6044" x2="280.694" y2="105.604" gradientUnits="userSpaceOnUse">
<stop stop-color="#25F5FF"/>
<stop offset="1" stop-color="#792787"/>
</linearGradient>
<linearGradient id="paint21_linear_40_830" x1="264.342" y1="121.365" x2="280.342" y2="106.365" gradientUnits="userSpaceOnUse">
<stop stop-color="#25F5FF"/>
<stop offset="1" stop-color="#792787"/>
</linearGradient>
<linearGradient id="paint22_linear_40_830" x1="236.522" y1="134.146" x2="247.522" y2="170.146" gradientUnits="userSpaceOnUse">
<stop stop-color="#25F5FF"/>
<stop offset="1" stop-color="#792787"/>
</linearGradient>
<linearGradient id="paint23_linear_40_830" x1="236.59" y1="133.714" x2="213.59" y2="166.714" gradientUnits="userSpaceOnUse">
<stop stop-color="#25F5FF"/>
<stop offset="1" stop-color="#792787"/>
</linearGradient>
<linearGradient id="paint24_linear_40_830" x1="302.676" y1="88.5007" x2="294.785" y2="136.204" gradientUnits="userSpaceOnUse">
<stop stop-color="#25F5FF"/>
<stop offset="0.5" stop-color="#4F8EC3"/>
<stop offset="1" stop-color="#792787"/>
</linearGradient>
<linearGradient id="paint25_linear_40_830" x1="263.516" y1="122.124" x2="273.516" y2="161.124" gradientUnits="userSpaceOnUse">
<stop stop-color="#25F5FF"/>
<stop offset="1" stop-color="#792787"/>
</linearGradient>
<linearGradient id="paint26_linear_40_830" x1="263.788" y1="122.453" x2="293.801" y2="136.529" gradientUnits="userSpaceOnUse">
<stop stop-color="#25F5FF"/>
<stop offset="1" stop-color="#792787"/>
</linearGradient>
<linearGradient id="paint27_linear_40_830" x1="237.99" y1="135.5" x2="294.003" y2="136.576" gradientUnits="userSpaceOnUse">
<stop stop-color="#25F5FF"/>
<stop offset="1" stop-color="#792787"/>
</linearGradient>
<linearGradient id="paint28_linear_40_830" x1="236.705" y1="134.404" x2="273.705" y2="161.404" gradientUnits="userSpaceOnUse">
<stop stop-color="#25F5FF"/>
<stop offset="1" stop-color="#792787"/>
</linearGradient>
<linearGradient id="paint29_linear_40_830" x1="236.892" y1="133.512" x2="182.892" y2="145.512" gradientUnits="userSpaceOnUse">
<stop stop-color="#25F5FF"/>
<stop offset="1" stop-color="#792787"/>
</linearGradient>
<linearGradient id="paint30_linear_40_830" x1="184.503" y1="115.947" x2="181.503" y2="143.947" gradientUnits="userSpaceOnUse">
<stop stop-color="#25F5FF"/>
<stop offset="1" stop-color="#792787"/>
</linearGradient>
<linearGradient id="paint31_linear_40_830" x1="188.456" y1="96.7955" x2="175.456" y2="67.7955" gradientUnits="userSpaceOnUse">
<stop stop-color="#25F5FF"/>
<stop offset="1" stop-color="#792787"/>
</linearGradient>
<linearGradient id="paint32_linear_40_830" x1="185.883" y1="116.486" x2="210.883" y2="122.486" gradientUnits="userSpaceOnUse">
<stop stop-color="#25F5FF"/>
<stop offset="0.619007" stop-color="#792787"/>
</linearGradient>
<linearGradient id="paint33_linear_40_830" x1="238.182" y1="68.4658" x2="279.182" y2="52.4658" gradientUnits="userSpaceOnUse">
<stop stop-color="#25F5FF"/>
<stop offset="1" stop-color="#792787"/>
</linearGradient>
<linearGradient id="paint34_linear_40_830" x1="303.219" y1="88.0849" x2="268.051" y2="84.5026" gradientUnits="userSpaceOnUse">
<stop stop-color="#25F5FF"/>
<stop offset="1" stop-color="#792787"/>
</linearGradient>
<linearGradient id="paint35_linear_40_830" x1="237.324" y1="67.6196" x2="203.324" y2="38.6196" gradientUnits="userSpaceOnUse">
<stop stop-color="#25F5FF"/>
<stop offset="1" stop-color="#792787"/>
</linearGradient>
<linearGradient id="paint36_linear_40_830" x1="197.451" y1="68.329" x2="202.506" y2="39.5978" gradientUnits="userSpaceOnUse">
<stop stop-color="#25F5FF"/>
<stop offset="0.639459" stop-color="#792787"/>
</linearGradient>
<linearGradient id="paint37_linear_40_830" x1="196.55" y1="68.5131" x2="209.589" y2="87.2852" gradientUnits="userSpaceOnUse">
<stop stop-color="#25F5FF"/>
<stop offset="1" stop-color="#792787"/>
</linearGradient>
<linearGradient id="paint38_linear_40_830" x1="188.207" y1="97.4552" x2="210.207" y2="87.4552" gradientUnits="userSpaceOnUse">
<stop stop-color="#25F5FF"/>
<stop offset="1" stop-color="#792787"/>
</linearGradient>
<linearGradient id="paint39_linear_40_830" x1="187.631" y1="97.3379" x2="201.69" y2="113.041" gradientUnits="userSpaceOnUse">
<stop stop-color="#25F5FF"/>
<stop offset="1" stop-color="#792787"/>
</linearGradient>
<linearGradient id="paint40_linear_40_830" x1="196.484" y1="68.0792" x2="187.523" y2="96.8513" gradientUnits="userSpaceOnUse">
<stop stop-color="#25F5FF"/>
<stop offset="0.5" stop-color="#792787"/>
<stop offset="1" stop-color="#25F5FF"/>
</linearGradient>
<linearGradient id="paint41_linear_40_830" x1="214.499" y1="166.967" x2="211.039" y2="120.997" gradientUnits="userSpaceOnUse">
<stop stop-color="#792787"/>
<stop offset="0.360512" stop-color="#25F5FF"/>
<stop offset="0.720869" stop-color="#792787"/>
</linearGradient>
<linearGradient id="paint42_linear_40_830" x1="267.473" y1="84.1625" x2="278.473" y2="52.1625" gradientUnits="userSpaceOnUse">
<stop stop-color="#792787"/>
<stop offset="0.5" stop-color="#25F5FF"/>
<stop offset="1" stop-color="#792787"/>
</linearGradient>
<linearGradient id="paint43_linear_40_830" x1="182.309" y1="144.393" x2="210.309" y2="122.393" gradientUnits="userSpaceOnUse">
<stop stop-color="#792787"/>
<stop offset="0.395886" stop-color="#25F5FF"/>
<stop offset="0.717818" stop-color="#792787"/>
</linearGradient>
<linearGradient id="paint44_linear_40_830" x1="197" y1="67.5" x2="175" y2="67.5" gradientUnits="userSpaceOnUse">
<stop stop-color="#25F5FF"/>
<stop offset="1" stop-color="#792787"/>
</linearGradient>
<linearGradient id="paint45_linear_40_830" x1="186.723" y1="96.584" x2="168.723" y2="108.584" gradientUnits="userSpaceOnUse">
<stop stop-color="#25F5FF"/>
<stop offset="1" stop-color="#792787"/>
</linearGradient>
<linearGradient id="paint46_linear_40_830" x1="186.19" y1="115.538" x2="169.19" y2="108.538" gradientUnits="userSpaceOnUse">
<stop stop-color="#25F5FF"/>
<stop offset="1" stop-color="#792787"/>
</linearGradient>
<linearGradient id="paint47_linear_40_830" x1="197.31" y1="68.5855" x2="233.099" y2="33.6286" gradientUnits="userSpaceOnUse">
<stop stop-color="#25F5FF"/>
<stop offset="1" stop-color="#792787"/>
</linearGradient>
<linearGradient id="paint48_linear_40_830" x1="238.498" y1="65.9571" x2="235.914" y2="35.9571" gradientUnits="userSpaceOnUse">
<stop stop-color="#25F5FF"/>
<stop offset="1" stop-color="#792787"/>
</linearGradient>
<linearGradient id="paint49_linear_40_830" x1="261.038" y1="37.5015" x2="235.038" y2="35.5015" gradientUnits="userSpaceOnUse">
<stop stop-color="#25F5FF"/>
<stop offset="1" stop-color="#792787"/>
</linearGradient>
<linearGradient id="paint50_linear_40_830" x1="260.725" y1="38.0746" x2="277.926" y2="52.9303" gradientUnits="userSpaceOnUse">
<stop stop-color="#25F5FF"/>
<stop offset="1" stop-color="#792787"/>
</linearGradient>
<linearGradient id="paint51_linear_40_830" x1="303.423" y1="88.733" x2="279.423" y2="50.733" gradientUnits="userSpaceOnUse">
<stop stop-color="#25F5FF"/>
<stop offset="1" stop-color="#792787"/>
</linearGradient>
<linearGradient id="paint52_linear_40_830" x1="302.694" y1="88.6044" x2="280.694" y2="105.604" gradientUnits="userSpaceOnUse">
<stop stop-color="#25F5FF"/>
<stop offset="1" stop-color="#792787"/>
</linearGradient>
<linearGradient id="paint53_linear_40_830" x1="264.342" y1="121.365" x2="280.342" y2="106.365" gradientUnits="userSpaceOnUse">
<stop stop-color="#25F5FF"/>
<stop offset="1" stop-color="#792787"/>
</linearGradient>
<linearGradient id="paint54_linear_40_830" x1="236.522" y1="134.146" x2="247.522" y2="170.146" gradientUnits="userSpaceOnUse">
<stop stop-color="#25F5FF"/>
<stop offset="1" stop-color="#792787"/>
</linearGradient>
<linearGradient id="paint55_linear_40_830" x1="236.59" y1="133.714" x2="213.59" y2="166.714" gradientUnits="userSpaceOnUse">
<stop stop-color="#25F5FF"/>
<stop offset="1" stop-color="#792787"/>
</linearGradient>
<linearGradient id="paint56_linear_40_830" x1="302.676" y1="88.5007" x2="294.785" y2="136.204" gradientUnits="userSpaceOnUse">
<stop stop-color="#25F5FF"/>
<stop offset="0.5" stop-color="#4F8EC3"/>
<stop offset="1" stop-color="#792787"/>
</linearGradient>
<linearGradient id="paint57_linear_40_830" x1="263.516" y1="122.124" x2="273.516" y2="161.124" gradientUnits="userSpaceOnUse">
<stop stop-color="#25F5FF"/>
<stop offset="1" stop-color="#792787"/>
</linearGradient>
<linearGradient id="paint58_linear_40_830" x1="263.788" y1="122.453" x2="293.801" y2="136.529" gradientUnits="userSpaceOnUse">
<stop stop-color="#25F5FF"/>
<stop offset="1" stop-color="#792787"/>
</linearGradient>
<linearGradient id="paint59_linear_40_830" x1="237.99" y1="135.5" x2="294.003" y2="136.576" gradientUnits="userSpaceOnUse">
<stop stop-color="#25F5FF"/>
<stop offset="1" stop-color="#792787"/>
</linearGradient>
<linearGradient id="paint60_linear_40_830" x1="236.705" y1="134.404" x2="273.705" y2="161.404" gradientUnits="userSpaceOnUse">
<stop stop-color="#25F5FF"/>
<stop offset="1" stop-color="#792787"/>
</linearGradient>
<linearGradient id="paint61_linear_40_830" x1="236.892" y1="133.512" x2="182.892" y2="145.512" gradientUnits="userSpaceOnUse">
<stop stop-color="#25F5FF"/>
<stop offset="1" stop-color="#792787"/>
</linearGradient>
<linearGradient id="paint62_linear_40_830" x1="184.503" y1="115.947" x2="181.503" y2="143.947" gradientUnits="userSpaceOnUse">
<stop stop-color="#25F5FF"/>
<stop offset="1" stop-color="#792787"/>
</linearGradient>
<linearGradient id="paint63_linear_40_830" x1="188.456" y1="96.7955" x2="175.456" y2="67.7955" gradientUnits="userSpaceOnUse">
<stop stop-color="#25F5FF"/>
<stop offset="1" stop-color="#792787"/>
</linearGradient>
<linearGradient id="paint64_linear_40_830" x1="185.883" y1="116.486" x2="210.883" y2="122.486" gradientUnits="userSpaceOnUse">
<stop stop-color="#25F5FF"/>
<stop offset="0.619007" stop-color="#792787"/>
</linearGradient>
<linearGradient id="paint65_linear_40_830" x1="238.182" y1="68.4658" x2="279.182" y2="52.4658" gradientUnits="userSpaceOnUse">
<stop stop-color="#25F5FF"/>
<stop offset="1" stop-color="#792787"/>
</linearGradient>
<linearGradient id="paint66_linear_40_830" x1="303.219" y1="88.0849" x2="268.051" y2="84.5026" gradientUnits="userSpaceOnUse">
<stop stop-color="#25F5FF"/>
<stop offset="1" stop-color="#792787"/>
</linearGradient>
<linearGradient id="paint67_linear_40_830" x1="237.324" y1="67.6196" x2="203.324" y2="38.6196" gradientUnits="userSpaceOnUse">
<stop stop-color="#25F5FF"/>
<stop offset="1" stop-color="#792787"/>
</linearGradient>
<clipPath id="clip0_40_830">
<rect width="675" height="208" fill="white" transform="translate(3)"/>
</clipPath>
</defs>
</svg>
