<svg width="678" height="208" viewBox="0 0 678 208" fill="none" xmlns="http://www.w3.org/2000/svg">
<g clip-path="url(#clip0_40_830)" filter="url(#filter0_d_40_830)">
<mask id="path-1-outside-1_40_830" maskUnits="userSpaceOnUse" x="331" y="24" width="342" height="158" fill="black">
<rect fill="white" x="331" y="24" width="342" height="158"/>
<path d="M339.671 171V34.1875H364.049V171H339.671ZM395.446 171V34.1875H424.549L490.717 135.678V34.1875H515.343V171H485.742L419.823 69.2613V171H395.446ZM603.852 94.6338H663.552V156.821C651.446 167.269 634.448 172.741 612.558 173.239C596.969 173.239 583.786 169.839 573.007 163.04C562.227 156.075 554.184 147.203 548.878 136.424C543.571 125.645 540.918 114.368 540.918 102.594C540.918 90.3221 543.737 78.8796 549.375 68.2662C555.014 57.6529 563.222 49.1125 574.002 42.645C584.947 36.1775 597.799 32.9438 612.558 32.9438C628.809 32.9438 643.983 37.0067 658.079 45.1325L661.562 47.1225L651.363 65.7787L647.88 64.2863C643.237 61.7987 637.847 59.7258 631.712 58.0675C625.742 56.2433 619.606 55.3312 613.304 55.3312C605.012 55.3312 597.218 57.2383 589.922 61.0525C582.625 64.7008 576.738 70.0904 572.26 77.2213C567.783 84.1863 565.544 92.3121 565.544 101.599C565.544 110.885 567.7 119.26 572.012 126.723C576.489 134.185 582.542 140.072 590.17 144.384C597.964 148.53 606.754 150.603 616.538 150.603C621.844 150.603 626.156 150.188 629.473 149.359C632.955 148.53 636.355 147.203 639.672 145.379V116.275H603.852V94.6338Z"/>
</mask>
<path d="M339.671 171H331.671V179H339.671V171ZM339.671 34.1875V26.1875H331.671V34.1875H339.671ZM364.049 34.1875H372.049V26.1875H364.049V34.1875ZM364.049 171V179H372.049V171H364.049ZM347.671 171V34.1875H331.671V171H347.671ZM339.671 42.1875H364.049V26.1875H339.671V42.1875ZM356.049 34.1875V171H372.049V34.1875H356.049ZM364.049 163H339.671V179H364.049V163ZM395.446 171H387.446V179H395.446V171ZM395.446 34.1875V26.1875H387.446V34.1875H395.446ZM424.549 34.1875L431.251 29.8184L428.884 26.1875H424.549V34.1875ZM490.717 135.678L484.015 140.047L498.717 162.596V135.678H490.717ZM490.717 34.1875V26.1875H482.717V34.1875H490.717ZM515.343 34.1875H523.343V26.1875H515.343V34.1875ZM515.343 171V179H523.343V171H515.343ZM485.742 171L479.028 175.35L481.393 179H485.742V171ZM419.823 69.2613L426.537 64.9112L411.823 42.2018V69.2613H419.823ZM419.823 171V179H427.823V171H419.823ZM403.446 171V34.1875H387.446V171H403.446ZM395.446 42.1875H424.549V26.1875H395.446V42.1875ZM417.848 38.5566L484.015 140.047L497.418 131.308L431.251 29.8184L417.848 38.5566ZM498.717 135.678V34.1875H482.717V135.678H498.717ZM490.717 42.1875H515.343V26.1875H490.717V42.1875ZM507.343 34.1875V171H523.343V34.1875H507.343ZM515.343 163H485.742V179H515.343V163ZM492.456 166.65L426.537 64.9112L413.109 73.6114L479.028 175.35L492.456 166.65ZM411.823 69.2613V171H427.823V69.2613H411.823ZM419.823 163H395.446V179H419.823V163ZM603.852 94.6338V86.6338H595.852V94.6338H603.852ZM663.552 94.6338H671.552V86.6338H663.552V94.6338ZM663.552 156.821L668.778 162.878L671.552 160.484V156.821H663.552ZM612.558 173.239V181.239H612.649L612.74 181.237L612.558 173.239ZM573.007 163.04L568.665 169.759L568.702 169.783L568.738 169.806L573.007 163.04ZM548.878 136.424L541.7 139.957L548.878 136.424ZM549.375 68.2662L542.31 64.513L549.375 68.2662ZM574.002 42.645L569.932 35.7576L569.909 35.7712L569.886 35.7851L574.002 42.645ZM658.079 45.1325L654.084 52.0633L654.097 52.0709L654.11 52.0785L658.079 45.1325ZM661.562 47.1225L668.581 50.9599L672.347 44.0715L665.531 40.1765L661.562 47.1225ZM651.363 65.7787L648.211 73.1319L654.895 75.9961L658.382 69.6161L651.363 65.7787ZM647.88 64.2863L644.102 71.3381L644.409 71.5024L644.729 71.6394L647.88 64.2863ZM631.712 58.0675L629.374 65.7183L629.498 65.7564L629.624 65.7904L631.712 58.0675ZM589.922 61.0525L593.499 68.2079L593.564 68.1757L593.628 68.1423L589.922 61.0525ZM572.26 77.2213L578.99 81.5473L579.013 81.5115L579.035 81.4754L572.26 77.2213ZM572.012 126.723L565.085 130.725L565.118 130.782L565.152 130.838L572.012 126.723ZM590.17 144.384L586.234 151.348L586.323 151.399L586.413 151.447L590.17 144.384ZM629.473 149.359L627.62 141.576L627.576 141.587L627.532 141.598L629.473 149.359ZM639.672 145.379L643.527 152.388L647.672 150.109V145.379H639.672ZM639.672 116.275H647.672V108.275H639.672V116.275ZM603.852 116.275H595.852V124.275H603.852V116.275ZM603.852 102.634H663.552V86.6338H603.852V102.634ZM655.552 94.6338V156.821H671.552V94.6338H655.552ZM658.325 150.765C648.066 159.618 633.092 164.77 612.376 165.241L612.74 181.237C635.803 180.713 654.825 174.92 668.778 162.878L658.325 150.765ZM612.558 165.239C598.142 165.239 586.517 162.104 577.275 156.274L568.738 169.806C581.054 177.575 595.797 181.239 612.558 181.239V165.239ZM577.348 156.321C567.699 150.086 560.678 142.281 556.055 132.89L541.7 139.957C547.69 152.124 556.756 162.064 568.665 169.759L577.348 156.321ZM556.055 132.89C551.278 123.187 548.918 113.117 548.918 102.594H532.918C532.918 115.619 535.864 128.102 541.7 139.957L556.055 132.89ZM548.918 102.594C548.918 91.6021 551.429 81.4519 556.44 72.0195L542.31 64.513C536.045 76.3072 532.918 89.0421 532.918 102.594H548.918ZM556.44 72.0195C561.364 62.7509 568.525 55.2601 578.117 49.5049L569.886 35.7851C557.919 42.9649 548.663 52.555 542.31 64.513L556.44 72.0195ZM578.071 49.5324C587.597 43.9035 598.997 40.9438 612.558 40.9438V24.9438C596.6 24.9438 582.296 28.4515 569.932 35.7576L578.071 49.5324ZM612.558 40.9438C627.405 40.9438 641.201 44.6371 654.084 52.0633L662.074 38.2017C646.765 29.3762 630.214 24.9438 612.558 24.9438V40.9438ZM654.11 52.0785L657.592 54.0685L665.531 40.1765L662.048 38.1866L654.11 52.0785ZM654.542 43.2851L644.343 61.9414L658.382 69.6161L668.581 50.9599L654.542 43.2851ZM654.514 58.4256L651.032 56.9331L644.729 71.6394L648.211 73.1319L654.514 58.4256ZM651.658 57.2344C646.382 54.4079 640.406 52.1302 633.799 50.3446L629.624 65.7904C635.289 67.3215 640.092 69.1896 644.102 71.3381L651.658 57.2344ZM634.049 50.4167C627.314 48.3588 620.39 47.3312 613.304 47.3312V63.3312C618.821 63.3312 624.169 64.1279 629.374 65.7183L634.049 50.4167ZM613.304 47.3312C603.731 47.3312 594.664 49.5462 586.215 53.9627L593.628 68.1423C599.772 64.9304 606.294 63.3312 613.304 63.3312V47.3312ZM586.344 53.8971C577.692 58.223 570.716 64.6363 565.485 72.9671L579.035 81.4754C582.759 75.5445 587.558 71.1787 593.499 68.2079L586.344 53.8971ZM565.531 72.8952C560.126 81.3034 557.544 90.9705 557.544 101.599H573.544C573.544 93.6537 575.44 87.0691 578.99 81.5473L565.531 72.8952ZM557.544 101.599C557.544 112.178 560.016 121.952 565.085 130.725L578.938 122.72C575.384 116.568 573.544 109.593 573.544 101.599H557.544ZM565.152 130.838C570.346 139.496 577.41 146.361 586.234 151.348L594.107 137.419C587.674 133.783 582.632 128.874 578.871 122.607L565.152 130.838ZM586.413 151.447C595.485 156.272 605.588 158.603 616.538 158.603V142.603C607.919 142.603 600.444 140.787 593.927 137.321L586.413 151.447ZM616.538 158.603C622.181 158.603 627.214 158.17 631.413 157.12L627.532 141.598C625.098 142.206 621.507 142.603 616.538 142.603V158.603ZM631.326 157.141C635.546 156.136 639.617 154.539 643.527 152.388L635.816 138.369C633.093 139.867 630.364 140.923 627.62 141.576L631.326 157.141ZM647.672 145.379V116.275H631.672V145.379H647.672ZM639.672 108.275H603.852V124.275H639.672V108.275ZM611.852 116.275V94.6338H595.852V116.275H611.852Z" fill="url(#paint0_linear_40_830)" mask="url(#path-1-outside-1_40_830)"/>
<g filter="url(#filter1_f_40_830)">
<mask id="path-3-outside-2_40_830" maskUnits="userSpaceOnUse" x="331" y="24" width="342" height="158" fill="black">
<rect fill="white" x="331" y="24" width="342" height="158"/>
<path d="M339.671 171V34.1875H364.049V171H339.671ZM395.446 171V34.1875H424.549L490.717 135.678V34.1875H515.343V171H485.742L419.823 69.2613V171H395.446ZM603.852 94.6338H663.552V156.821C651.446 167.269 634.448 172.741 612.558 173.239C596.969 173.239 583.786 169.839 573.007 163.04C562.227 156.075 554.184 147.203 548.878 136.424C543.571 125.645 540.918 114.368 540.918 102.594C540.918 90.3221 543.737 78.8796 549.375 68.2662C555.014 57.6529 563.222 49.1125 574.002 42.645C584.947 36.1775 597.799 32.9438 612.558 32.9438C628.809 32.9438 643.983 37.0067 658.079 45.1325L661.562 47.1225L651.363 65.7787L647.88 64.2863C643.237 61.7987 637.847 59.7258 631.712 58.0675C625.742 56.2433 619.606 55.3312 613.304 55.3312C605.012 55.3312 597.218 57.2383 589.922 61.0525C582.625 64.7008 576.738 70.0904 572.26 77.2213C567.783 84.1863 565.544 92.3121 565.544 101.599C565.544 110.885 567.7 119.26 572.012 126.723C576.489 134.185 582.542 140.072 590.17 144.384C597.964 148.53 606.754 150.603 616.538 150.603C621.844 150.603 626.156 150.188 629.473 149.359C632.955 148.53 636.355 147.203 639.672 145.379V116.275H603.852V94.6338Z"/>
</mask>
<path d="M339.671 171H331.671V179H339.671V171ZM339.671 34.1875V26.1875H331.671V34.1875H339.671ZM364.049 34.1875H372.049V26.1875H364.049V34.1875ZM364.049 171V179H372.049V171H364.049ZM347.671 171V34.1875H331.671V171H347.671ZM339.671 42.1875H364.049V26.1875H339.671V42.1875ZM356.049 34.1875V171H372.049V34.1875H356.049ZM364.049 163H339.671V179H364.049V163ZM395.446 171H387.446V179H395.446V171ZM395.446 34.1875V26.1875H387.446V34.1875H395.446ZM424.549 34.1875L431.251 29.8184L428.884 26.1875H424.549V34.1875ZM490.717 135.678L484.015 140.047L498.717 162.596V135.678H490.717ZM490.717 34.1875V26.1875H482.717V34.1875H490.717ZM515.343 34.1875H523.343V26.1875H515.343V34.1875ZM515.343 171V179H523.343V171H515.343ZM485.742 171L479.028 175.35L481.393 179H485.742V171ZM419.823 69.2613L426.537 64.9112L411.823 42.2018V69.2613H419.823ZM419.823 171V179H427.823V171H419.823ZM403.446 171V34.1875H387.446V171H403.446ZM395.446 42.1875H424.549V26.1875H395.446V42.1875ZM417.848 38.5566L484.015 140.047L497.418 131.308L431.251 29.8184L417.848 38.5566ZM498.717 135.678V34.1875H482.717V135.678H498.717ZM490.717 42.1875H515.343V26.1875H490.717V42.1875ZM507.343 34.1875V171H523.343V34.1875H507.343ZM515.343 163H485.742V179H515.343V163ZM492.456 166.65L426.537 64.9112L413.109 73.6114L479.028 175.35L492.456 166.65ZM411.823 69.2613V171H427.823V69.2613H411.823ZM419.823 163H395.446V179H419.823V163ZM603.852 94.6338V86.6338H595.852V94.6338H603.852ZM663.552 94.6338H671.552V86.6338H663.552V94.6338ZM663.552 156.821L668.778 162.878L671.552 160.484V156.821H663.552ZM612.558 173.239V181.239H612.649L612.74 181.237L612.558 173.239ZM573.007 163.04L568.665 169.759L568.702 169.783L568.738 169.806L573.007 163.04ZM548.878 136.424L541.7 139.957L548.878 136.424ZM549.375 68.2662L542.31 64.513L549.375 68.2662ZM574.002 42.645L569.932 35.7576L569.909 35.7712L569.886 35.7851L574.002 42.645ZM658.079 45.1325L654.084 52.0633L654.097 52.0709L654.11 52.0785L658.079 45.1325ZM661.562 47.1225L668.581 50.9599L672.347 44.0715L665.531 40.1765L661.562 47.1225ZM651.363 65.7787L648.211 73.1319L654.895 75.9961L658.382 69.6161L651.363 65.7787ZM647.88 64.2863L644.102 71.3381L644.409 71.5024L644.729 71.6394L647.88 64.2863ZM631.712 58.0675L629.374 65.7183L629.498 65.7564L629.624 65.7904L631.712 58.0675ZM589.922 61.0525L593.499 68.2079L593.564 68.1757L593.628 68.1423L589.922 61.0525ZM572.26 77.2213L578.99 81.5473L579.013 81.5115L579.035 81.4754L572.26 77.2213ZM572.012 126.723L565.085 130.725L565.118 130.782L565.152 130.838L572.012 126.723ZM590.17 144.384L586.234 151.348L586.323 151.399L586.413 151.447L590.17 144.384ZM629.473 149.359L627.62 141.576L627.576 141.587L627.532 141.598L629.473 149.359ZM639.672 145.379L643.527 152.388L647.672 150.109V145.379H639.672ZM639.672 116.275H647.672V108.275H639.672V116.275ZM603.852 116.275H595.852V124.275H603.852V116.275ZM603.852 102.634H663.552V86.6338H603.852V102.634ZM655.552 94.6338V156.821H671.552V94.6338H655.552ZM658.325 150.765C648.066 159.618 633.092 164.77 612.376 165.241L612.74 181.237C635.803 180.713 654.825 174.92 668.778 162.878L658.325 150.765ZM612.558 165.239C598.142 165.239 586.517 162.104 577.275 156.274L568.738 169.806C581.054 177.575 595.797 181.239 612.558 181.239V165.239ZM577.348 156.321C567.699 150.086 560.678 142.281 556.055 132.89L541.7 139.957C547.69 152.124 556.756 162.064 568.665 169.759L577.348 156.321ZM556.055 132.89C551.278 123.187 548.918 113.117 548.918 102.594H532.918C532.918 115.619 535.864 128.102 541.7 139.957L556.055 132.89ZM548.918 102.594C548.918 91.6021 551.429 81.4519 556.44 72.0195L542.31 64.513C536.045 76.3072 532.918 89.0421 532.918 102.594H548.918ZM556.44 72.0195C561.364 62.7509 568.525 55.2601 578.117 49.5049L569.886 35.7851C557.919 42.9649 548.663 52.555 542.31 64.513L556.44 72.0195ZM578.071 49.5324C587.597 43.9035 598.997 40.9438 612.558 40.9438V24.9438C596.6 24.9438 582.296 28.4515 569.932 35.7576L578.071 49.5324ZM612.558 40.9438C627.405 40.9438 641.201 44.6371 654.084 52.0633L662.074 38.2017C646.765 29.3762 630.214 24.9438 612.558 24.9438V40.9438ZM654.11 52.0785L657.592 54.0685L665.531 40.1765L662.048 38.1866L654.11 52.0785ZM654.542 43.2851L644.343 61.9414L658.382 69.6161L668.581 50.9599L654.542 43.2851ZM654.514 58.4256L651.032 56.9331L644.729 71.6394L648.211 73.1319L654.514 58.4256ZM651.658 57.2344C646.382 54.4079 640.406 52.1302 633.799 50.3446L629.624 65.7904C635.289 67.3215 640.092 69.1896 644.102 71.3381L651.658 57.2344ZM634.049 50.4167C627.314 48.3588 620.39 47.3312 613.304 47.3312V63.3312C618.821 63.3312 624.169 64.1279 629.374 65.7183L634.049 50.4167ZM613.304 47.3312C603.731 47.3312 594.664 49.5462 586.215 53.9627L593.628 68.1423C599.772 64.9304 606.294 63.3312 613.304 63.3312V47.3312ZM586.344 53.8971C577.692 58.223 570.716 64.6363 565.485 72.9671L579.035 81.4754C582.759 75.5445 587.558 71.1787 593.499 68.2079L586.344 53.8971ZM565.531 72.8952C560.126 81.3034 557.544 90.9705 557.544 101.599H573.544C573.544 93.6537 575.44 87.0691 578.99 81.5473L565.531 72.8952ZM557.544 101.599C557.544 112.178 560.016 121.952 565.085 130.725L578.938 122.72C575.384 116.568 573.544 109.593 573.544 101.599H557.544ZM565.152 130.838C570.346 139.496 577.41 146.361 586.234 151.348L594.107 137.419C587.674 133.783 582.632 128.874 578.871 122.607L565.152 130.838ZM586.413 151.447C595.485 156.272 605.588 158.603 616.538 158.603V142.603C607.919 142.603 600.444 140.787 593.927 137.321L586.413 151.447ZM616.538 158.603C622.181 158.603 627.214 158.17 631.413 157.12L627.532 141.598C625.098 142.206 621.507 142.603 616.538 142.603V158.603ZM631.326 157.141C635.546 156.136 639.617 154.539 643.527 152.388L635.816 138.369C633.093 139.867 630.364 140.923 627.62 141.576L631.326 157.141ZM647.672 145.379V116.275H631.672V145.379H647.672ZM639.672 108.275H603.852V124.275H639.672V108.275ZM611.852 116.275V94.6338H595.852V116.275H611.852Z" fill="url(#paint1_linear_40_830)" mask="url(#path-3-outside-2_40_830)"/>
</g>
<g filter="url(#filter2_dddddd_40_830)">
<mask id="path-5-outside-3_40_830" maskUnits="userSpaceOnUse" x="4" y="24" width="141" height="158" fill="black">
<rect fill="white" x="4" y="24" width="141" height="158"/>
<path d="M75.8837 94.6338H135.584V156.821C123.478 167.269 106.48 172.741 84.59 173.239C69.0017 173.239 55.8179 169.839 45.0387 163.04C34.2596 156.075 26.2167 147.203 20.91 136.424C15.6033 125.645 12.95 114.368 12.95 102.594C12.95 90.3221 15.7692 78.8796 21.4075 68.2662C27.0458 57.6529 35.2546 49.1125 46.0338 42.645C56.9787 36.1775 69.8308 32.9438 84.59 32.9438C100.842 32.9438 116.015 37.0067 130.111 45.1325L133.594 47.1225L123.395 65.7787L119.912 64.2863C115.269 61.7987 109.88 59.7258 103.744 58.0675C97.7737 56.2433 91.6379 55.3312 85.3362 55.3312C77.0446 55.3312 69.2504 57.2383 61.9537 61.0525C54.6571 64.7008 48.77 70.0904 44.2925 77.2213C39.815 84.1863 37.5762 92.3121 37.5762 101.599C37.5762 110.885 39.7321 119.26 44.0437 126.723C48.5212 134.185 54.5742 140.072 62.2025 144.384C69.9967 148.53 78.7858 150.603 88.57 150.603C93.8767 150.603 98.1883 150.188 101.505 149.359C104.987 148.53 108.387 147.203 111.704 145.379V116.275H75.8837V94.6338Z"/>
</mask>
<path d="M75.8837 94.6338V86.6338H67.8837V94.6338H75.8837ZM135.584 94.6338H143.584V86.6338H135.584V94.6338ZM135.584 156.821L140.811 162.878L143.584 160.484V156.821H135.584ZM84.59 173.239V181.239H84.6809L84.7718 181.237L84.59 173.239ZM45.0387 163.04L40.697 169.759L40.7337 169.783L40.7707 169.806L45.0387 163.04ZM20.91 136.424L13.7326 139.957L20.91 136.424ZM21.4075 68.2662L14.3426 64.513L21.4075 68.2662ZM46.0338 42.645L41.9639 35.7576L41.9408 35.7712L41.9178 35.7851L46.0338 42.645ZM130.111 45.1325L126.116 52.0633L126.129 52.0709L126.142 52.0785L130.111 45.1325ZM133.594 47.1225L140.613 50.9599L144.379 44.0715L137.563 40.1765L133.594 47.1225ZM123.395 65.7787L120.244 73.1319L126.927 75.9961L130.415 69.6161L123.395 65.7787ZM119.912 64.2863L116.135 71.3381L116.441 71.5024L116.761 71.6394L119.912 64.2863ZM103.744 58.0675L101.406 65.7183L101.531 65.7564L101.656 65.7904L103.744 58.0675ZM61.9537 61.0525L65.5315 68.2079L65.5959 68.1757L65.6598 68.1423L61.9537 61.0525ZM44.2925 77.2213L51.0219 81.5473L51.045 81.5115L51.0676 81.4754L44.2925 77.2213ZM44.0437 126.723L37.1168 130.725L37.1498 130.782L37.1838 130.838L44.0437 126.723ZM62.2025 144.384L58.266 151.348L58.3552 151.399L58.4456 151.447L62.2025 144.384ZM101.505 149.359L99.652 141.576L99.6083 141.587L99.5647 141.598L101.505 149.359ZM111.704 145.379L115.559 152.388L119.704 150.109V145.379H111.704ZM111.704 116.275H119.704V108.275H111.704V116.275ZM75.8837 116.275H67.8837V124.275H75.8837V116.275ZM75.8837 102.634H135.584V86.6338H75.8837V102.634ZM127.584 94.6338V156.821H143.584V94.6338H127.584ZM130.357 150.765C120.099 159.618 105.124 164.77 84.4082 165.241L84.7718 181.237C107.836 180.713 126.857 174.92 140.811 162.878L130.357 150.765ZM84.59 165.239C70.1741 165.239 58.5496 162.104 49.3068 156.274L40.7707 169.806C53.0862 177.575 67.8292 181.239 84.59 181.239V165.239ZM49.3805 156.321C39.7313 150.086 32.7107 142.281 28.0874 132.89L13.7326 139.957C19.7226 152.124 28.7879 162.064 40.697 169.759L49.3805 156.321ZM28.0874 132.89C23.3104 123.187 20.95 113.117 20.95 102.594H4.95C4.95 115.619 7.89622 128.102 13.7326 139.957L28.0874 132.89ZM20.95 102.594C20.95 91.6021 23.4614 81.4519 28.4724 72.0195L14.3426 64.513C8.0769 76.3072 4.95 89.0421 4.95 102.594H20.95ZM28.4724 72.0195C33.3964 62.7509 40.5577 55.2601 50.1497 49.5049L41.9178 35.7851C29.9514 42.9649 20.6953 52.555 14.3426 64.513L28.4724 72.0195ZM50.1036 49.5324C59.6294 43.9035 71.0291 40.9438 84.59 40.9438V24.9438C68.6326 24.9438 54.3281 28.4515 41.9639 35.7576L50.1036 49.5324ZM84.59 40.9438C99.4375 40.9438 113.234 44.6371 126.116 52.0633L134.107 38.2017C118.797 29.3762 102.246 24.9438 84.59 24.9438V40.9438ZM126.142 52.0785L129.625 54.0685L137.563 40.1765L134.08 38.1866L126.142 52.0785ZM126.574 43.2851L116.375 61.9414L130.415 69.6161L140.613 50.9599L126.574 43.2851ZM126.546 58.4256L123.064 56.9331L116.761 71.6394L120.244 73.1319L126.546 58.4256ZM123.69 57.2344C118.414 54.4079 112.438 52.1302 105.831 50.3446L101.656 65.7904C107.321 67.3215 112.124 69.1896 116.135 71.3381L123.69 57.2344ZM106.081 50.4167C99.3466 48.3588 92.4225 47.3312 85.3362 47.3312V63.3312C90.8533 63.3312 96.2009 64.1279 101.406 65.7183L106.081 50.4167ZM85.3362 47.3312C75.7634 47.3312 66.6966 49.5462 58.2477 53.9627L65.6598 68.1423C71.8042 64.9304 78.3257 63.3312 85.3362 63.3312V47.3312ZM58.376 53.8971C49.7243 58.223 42.7483 64.6363 37.5174 72.9671L51.0676 81.4754C54.7917 75.5445 59.5899 71.1787 65.5315 68.2079L58.376 53.8971ZM37.5631 72.8952C32.1578 81.3034 29.5762 90.9705 29.5762 101.599H45.5762C45.5762 93.6537 47.4722 87.0691 51.0219 81.5473L37.5631 72.8952ZM29.5762 101.599C29.5762 112.178 32.048 121.952 37.1168 130.725L50.9707 122.72C47.4162 116.568 45.5762 109.593 45.5762 101.599H29.5762ZM37.1838 130.838C42.3782 139.496 49.442 146.361 58.266 151.348L66.139 137.419C59.7063 133.783 54.6643 128.874 50.9037 122.607L37.1838 130.838ZM58.4456 151.447C67.5176 156.272 77.6201 158.603 88.57 158.603V142.603C79.9515 142.603 72.4758 140.787 65.9594 137.321L58.4456 151.447ZM88.57 158.603C94.2136 158.603 99.2465 158.17 103.445 157.12L99.5647 141.598C97.1302 142.206 93.5397 142.603 88.57 142.603V158.603ZM103.358 157.141C107.579 156.136 111.649 154.539 115.559 152.388L107.848 138.369C105.125 139.867 102.396 140.923 99.652 141.576L103.358 157.141ZM119.704 145.379V116.275H103.704V145.379H119.704ZM111.704 108.275H75.8837V124.275H111.704V108.275ZM83.8837 116.275V94.6338H67.8837V116.275H83.8837Z" fill="url(#paint2_linear_40_830)" mask="url(#path-5-outside-3_40_830)"/>
</g>
<g filter="url(#filter3_f_40_830)">
<mask id="path-7-outside-4_40_830" maskUnits="userSpaceOnUse" x="4" y="24" width="141" height="158" fill="black">
<rect fill="white" x="4" y="24" width="141" height="158"/>
<path d="M75.8837 94.6338H135.584V156.821C123.478 167.269 106.48 172.741 84.59 173.239C69.0017 173.239 55.8179 169.839 45.0387 163.04C34.2596 156.075 26.2167 147.203 20.91 136.424C15.6033 125.645 12.95 114.368 12.95 102.594C12.95 90.3221 15.7692 78.8796 21.4075 68.2662C27.0458 57.6529 35.2546 49.1125 46.0338 42.645C56.9787 36.1775 69.8308 32.9438 84.59 32.9438C100.842 32.9438 116.015 37.0067 130.111 45.1325L133.594 47.1225L123.395 65.7787L119.912 64.2863C115.269 61.7987 109.88 59.7258 103.744 58.0675C97.7737 56.2433 91.6379 55.3312 85.3362 55.3312C77.0446 55.3312 69.2504 57.2383 61.9537 61.0525C54.6571 64.7008 48.77 70.0904 44.2925 77.2213C39.815 84.1863 37.5762 92.3121 37.5762 101.599C37.5762 110.885 39.7321 119.26 44.0437 126.723C48.5212 134.185 54.5742 140.072 62.2025 144.384C69.9967 148.53 78.7858 150.603 88.57 150.603C93.8767 150.603 98.1883 150.188 101.505 149.359C104.987 148.53 108.387 147.203 111.704 145.379V116.275H75.8837V94.6338Z"/>
</mask>
<path d="M75.8837 94.6338V86.6338H67.8837V94.6338H75.8837ZM135.584 94.6338H143.584V86.6338H135.584V94.6338ZM135.584 156.821L140.811 162.878L143.584 160.484V156.821H135.584ZM84.59 173.239V181.239H84.6809L84.7718 181.237L84.59 173.239ZM45.0387 163.04L40.697 169.759L40.7337 169.783L40.7707 169.806L45.0387 163.04ZM20.91 136.424L13.7326 139.957L20.91 136.424ZM21.4075 68.2662L14.3426 64.513L21.4075 68.2662ZM46.0338 42.645L41.9639 35.7576L41.9408 35.7712L41.9178 35.7851L46.0338 42.645ZM130.111 45.1325L126.116 52.0633L126.129 52.0709L126.142 52.0785L130.111 45.1325ZM133.594 47.1225L140.613 50.9599L144.379 44.0715L137.563 40.1765L133.594 47.1225ZM123.395 65.7787L120.244 73.1319L126.927 75.9961L130.415 69.6161L123.395 65.7787ZM119.912 64.2863L116.135 71.3381L116.441 71.5024L116.761 71.6394L119.912 64.2863ZM103.744 58.0675L101.406 65.7183L101.531 65.7564L101.656 65.7904L103.744 58.0675ZM61.9537 61.0525L65.5315 68.2079L65.5959 68.1757L65.6598 68.1423L61.9537 61.0525ZM44.2925 77.2213L51.0219 81.5473L51.045 81.5115L51.0676 81.4754L44.2925 77.2213ZM44.0437 126.723L37.1168 130.725L37.1498 130.782L37.1838 130.838L44.0437 126.723ZM62.2025 144.384L58.266 151.348L58.3552 151.399L58.4456 151.447L62.2025 144.384ZM101.505 149.359L99.652 141.576L99.6083 141.587L99.5647 141.598L101.505 149.359ZM111.704 145.379L115.559 152.388L119.704 150.109V145.379H111.704ZM111.704 116.275H119.704V108.275H111.704V116.275ZM75.8837 116.275H67.8837V124.275H75.8837V116.275ZM75.8837 102.634H135.584V86.6338H75.8837V102.634ZM127.584 94.6338V156.821H143.584V94.6338H127.584ZM130.357 150.765C120.099 159.618 105.124 164.77 84.4082 165.241L84.7718 181.237C107.836 180.713 126.857 174.92 140.811 162.878L130.357 150.765ZM84.59 165.239C70.1741 165.239 58.5496 162.104 49.3068 156.274L40.7707 169.806C53.0862 177.575 67.8292 181.239 84.59 181.239V165.239ZM49.3805 156.321C39.7313 150.086 32.7107 142.281 28.0874 132.89L13.7326 139.957C19.7226 152.124 28.7879 162.064 40.697 169.759L49.3805 156.321ZM28.0874 132.89C23.3104 123.187 20.95 113.117 20.95 102.594H4.95C4.95 115.619 7.89622 128.102 13.7326 139.957L28.0874 132.89ZM20.95 102.594C20.95 91.6021 23.4614 81.4519 28.4724 72.0195L14.3426 64.513C8.0769 76.3072 4.95 89.0421 4.95 102.594H20.95ZM28.4724 72.0195C33.3964 62.7509 40.5577 55.2601 50.1497 49.5049L41.9178 35.7851C29.9514 42.9649 20.6953 52.555 14.3426 64.513L28.4724 72.0195ZM50.1036 49.5324C59.6294 43.9035 71.0291 40.9438 84.59 40.9438V24.9438C68.6326 24.9438 54.3281 28.4515 41.9639 35.7576L50.1036 49.5324ZM84.59 40.9438C99.4375 40.9438 113.234 44.6371 126.116 52.0633L134.107 38.2017C118.797 29.3762 102.246 24.9438 84.59 24.9438V40.9438ZM126.142 52.0785L129.625 54.0685L137.563 40.1765L134.08 38.1866L126.142 52.0785ZM126.574 43.2851L116.375 61.9414L130.415 69.6161L140.613 50.9599L126.574 43.2851ZM126.546 58.4256L123.064 56.9331L116.761 71.6394L120.244 73.1319L126.546 58.4256ZM123.69 57.2344C118.414 54.4079 112.438 52.1302 105.831 50.3446L101.656 65.7904C107.321 67.3215 112.124 69.1896 116.135 71.3381L123.69 57.2344ZM106.081 50.4167C99.3466 48.3588 92.4225 47.3312 85.3362 47.3312V63.3312C90.8533 63.3312 96.2009 64.1279 101.406 65.7183L106.081 50.4167ZM85.3362 47.3312C75.7634 47.3312 66.6966 49.5462 58.2477 53.9627L65.6598 68.1423C71.8042 64.9304 78.3257 63.3312 85.3362 63.3312V47.3312ZM58.376 53.8971C49.7243 58.223 42.7483 64.6363 37.5174 72.9671L51.0676 81.4754C54.7917 75.5445 59.5899 71.1787 65.5315 68.2079L58.376 53.8971ZM37.5631 72.8952C32.1578 81.3034 29.5762 90.9705 29.5762 101.599H45.5762C45.5762 93.6537 47.4722 87.0691 51.0219 81.5473L37.5631 72.8952ZM29.5762 101.599C29.5762 112.178 32.048 121.952 37.1168 130.725L50.9707 122.72C47.4162 116.568 45.5762 109.593 45.5762 101.599H29.5762ZM37.1838 130.838C42.3782 139.496 49.442 146.361 58.266 151.348L66.139 137.419C59.7063 133.783 54.6643 128.874 50.9037 122.607L37.1838 130.838ZM58.4456 151.447C67.5176 156.272 77.6201 158.603 88.57 158.603V142.603C79.9515 142.603 72.4758 140.787 65.9594 137.321L58.4456 151.447ZM88.57 158.603C94.2136 158.603 99.2465 158.17 103.445 157.12L99.5647 141.598C97.1302 142.206 93.5397 142.603 88.57 142.603V158.603ZM103.358 157.141C107.579 156.136 111.649 154.539 115.559 152.388L107.848 138.369C105.125 139.867 102.396 140.923 99.652 141.576L103.358 157.141ZM119.704 145.379V116.275H103.704V145.379H119.704ZM111.704 108.275H75.8837V124.275H111.704V108.275ZM83.8837 116.275V94.6338H67.8837V116.275H83.8837Z" fill="url(#paint3_linear_40_830)" mask="url(#path-7-outside-4_40_830)"/>
</g>
<g filter="url(#filter4_d_40_830)">
<path d="M196.813 75.2528C200.156 75.7993 203.38 73.5448 204.014 70.2173C204.648 66.8898 202.452 63.7493 199.109 63.2029C195.766 62.6564 192.542 64.9109 191.908 68.2384C191.274 71.5659 193.47 74.7064 196.813 75.2528ZM202.307 46.4174C205.65 46.9638 208.874 44.7094 209.508 41.3819C210.141 38.0544 207.945 34.9139 204.602 34.3674C201.259 33.821 198.036 36.0755 197.402 39.403C196.768 42.7305 198.964 45.8709 202.307 46.4174ZM199.096 69.4134L204.59 40.5779L202.32 40.2069L196.826 69.0423L199.096 69.4134Z" fill="url(#paint4_linear_40_830)"/>
<path d="M222.967 67.8653C223.181 71.2459 226.097 73.8369 229.48 73.6526C232.862 73.4684 235.43 70.5785 235.215 67.1979C235.001 63.8174 232.085 61.2263 228.702 61.4106C225.32 61.5949 222.752 64.4848 222.967 67.8653ZM198.034 70.3755L229.164 68.6793L229.018 66.384L197.888 68.0802L198.034 70.3755Z" fill="url(#paint5_linear_40_830)"/>
<path d="M200.025 120.977C196.725 121.741 194.766 125.012 195.648 128.282C196.531 131.553 199.922 133.584 203.222 132.82C206.522 132.056 208.481 128.785 207.599 125.515C206.716 122.245 203.325 120.213 200.025 120.977ZM191.347 93.2341L200.503 127.158L202.744 126.639L193.588 92.7153L191.347 93.2341Z" fill="url(#paint6_linear_40_830)"/>
<path d="M189.887 148.641C186.814 147.217 183.018 148.48 181.409 151.46C179.8 154.441 180.987 158.012 184.061 159.435C187.134 160.859 190.93 159.596 192.539 156.616C194.148 153.635 192.961 150.064 189.887 148.641ZM200.58 126.415L185.931 153.555L188.018 154.521L202.667 127.382L200.58 126.415Z" fill="url(#paint7_linear_40_830)"/>
<path d="M189.887 148.641C186.814 147.217 183.018 148.48 181.409 151.46C179.8 154.441 180.987 158.012 184.061 159.435C187.134 160.859 190.93 159.596 192.539 156.616C194.148 153.635 192.961 150.064 189.887 148.641ZM200.58 126.415L185.931 153.555L188.018 154.521L202.667 127.382L200.58 126.415Z" fill="url(#paint8_linear_40_830)"/>
<path d="M193.85 86.9992C190.527 86.3397 187.215 88.4804 186.452 91.7806C185.688 95.0807 187.763 98.2907 191.085 98.9502C194.408 99.6097 197.72 97.469 198.484 94.1688C199.247 90.8686 197.172 87.6586 193.85 86.9992ZM196.833 69.0039L191.34 92.7508L193.596 93.1986L199.089 69.4517L196.833 69.0039Z" fill="url(#paint9_linear_40_830)"/>
<path d="M182.133 69C182.133 65.6127 179.387 62.8667 176 62.8667C172.613 62.8667 169.867 65.6127 169.867 69C169.867 72.3873 172.613 75.1333 176 75.1333C179.387 75.1333 182.133 72.3873 182.133 69ZM198 67.85H176V70.15H198V67.85Z" fill="url(#paint10_linear_40_830)"/>
<path d="M172.101 105.102C170.17 102.32 166.245 101.469 163.334 103.202C160.424 104.935 159.63 108.596 161.561 111.379C163.493 114.161 167.418 115.012 170.328 113.279C173.239 111.546 174.032 107.885 172.101 105.102ZM191.812 92.0299L166.175 107.296L167.487 109.185L193.123 93.9195L191.812 92.0299Z" fill="url(#paint11_linear_40_830)"/>
<path d="M231.715 40.9396C234.082 43.3628 238.105 43.5634 240.701 41.3876C243.297 39.2118 243.483 35.4836 241.116 33.0604C238.749 30.6372 234.726 30.4366 232.13 32.6124C229.534 34.7882 229.348 38.5164 231.715 40.9396ZM198.765 70.0505L237.219 37.8227L235.612 36.1773L197.158 68.4052L198.765 70.0505Z" fill="url(#paint12_linear_40_830)"/>
<path d="M239.81 42.1087C242.752 40.4312 243.618 36.7841 241.744 33.9626C239.87 31.1412 235.964 30.2138 233.022 31.8913C230.079 33.5688 229.213 37.2159 231.087 40.0374C232.962 42.8588 236.867 43.7862 239.81 42.1087ZM252.064 58.4811L237.415 36.4305L235.417 37.5695L250.066 59.6201L252.064 58.4811Z" fill="url(#paint13_linear_40_830)"/>
<path d="M255.932 38.2913C255.672 41.6686 258.2 44.5878 261.58 44.8114C264.96 45.035 267.911 42.4784 268.172 39.1011C268.432 35.7238 265.903 32.8047 262.523 32.581C259.143 32.3574 256.192 34.914 255.932 38.2913ZM236.327 38.1466L261.963 39.8428L262.14 37.5496L236.504 35.8534L236.327 38.1466Z" fill="url(#paint14_linear_40_830)"/>
<path d="M275.436 48.6142C273.222 51.1778 273.633 54.8909 276.355 56.9077C279.076 58.9244 283.077 58.4811 285.291 55.9175C287.506 53.3539 287.094 49.6408 284.373 47.624C281.651 45.6073 277.65 46.0506 275.436 48.6142ZM261.3 39.5666L279.612 53.1362L281.115 51.3955L262.804 37.8259L261.3 39.5666Z" fill="url(#paint15_linear_40_830)"/>
<path d="M300.87 84.4115C297.899 86.0379 296.967 89.6714 298.789 92.5271C300.61 95.3829 304.496 96.3795 307.467 94.7531C310.439 93.1267 311.371 89.4932 309.549 86.6375C307.727 83.7817 303.842 82.7851 300.87 84.4115ZM279.355 52.818L303.16 90.1345L305.178 89.0301L281.372 51.7137L279.355 52.818Z" fill="url(#paint16_linear_40_830)"/>
<path d="M279.875 108.088C277.719 105.476 273.73 104.945 270.965 106.903C268.201 108.861 267.709 112.566 269.865 115.178C272.022 117.79 276.011 118.321 278.775 116.363C281.539 114.405 282.032 110.7 279.875 108.088ZM305.268 88.6955L274.138 110.746L275.602 112.52L306.732 90.4691L305.268 88.6955Z" fill="url(#paint17_linear_40_830)"/>
<path d="M269.622 126.216C266.386 125.217 262.832 126.991 261.685 130.178C260.538 133.365 262.232 136.759 265.469 137.758C268.705 138.758 272.259 136.984 273.406 133.797C274.553 130.61 272.859 127.216 269.622 126.216ZM273.771 111.294L266.447 131.648L268.644 132.327L275.969 111.972L273.771 111.294Z" fill="url(#paint18_linear_40_830)"/>
<path d="M246.043 161.492C242.663 161.269 239.712 163.825 239.451 167.203C239.191 170.58 241.72 173.499 245.1 173.723C248.48 173.946 251.431 171.39 251.691 168.013C251.952 164.635 249.423 161.716 246.043 161.492ZM246.255 143.785L244.424 167.532L246.719 167.684L248.55 143.937L246.255 143.785Z" fill="url(#paint19_linear_40_830)"/>
<path d="M229.437 164.662C226.716 162.645 222.715 163.089 220.501 165.652C218.287 168.216 218.698 171.929 221.42 173.946C224.141 175.962 228.142 175.519 230.356 172.955C232.57 170.392 232.159 166.679 229.437 164.662ZM246.479 143.176L224.505 168.619L226.353 169.988L248.327 144.545L246.479 143.176Z" fill="url(#paint20_linear_40_830)"/>
<path d="M252.686 140.746C250.768 137.954 246.848 137.085 243.93 138.805C241.011 140.526 240.201 144.183 242.119 146.975C244.037 149.767 247.957 150.636 250.876 148.916C253.794 147.196 254.604 143.538 252.686 140.746ZM266.894 131.039L246.751 142.913L248.054 144.809L268.197 132.935L266.894 131.039Z" fill="url(#paint21_linear_40_830)"/>
<path d="M296.174 131.054C292.832 130.501 289.603 132.749 288.962 136.075C288.321 139.401 290.51 142.546 293.852 143.098C297.194 143.651 300.423 141.403 301.064 138.077C301.705 134.751 299.516 131.606 296.174 131.054ZM303.034 89.3946L293.878 136.888L296.148 137.264L305.303 89.77L303.034 89.3946Z" fill="url(#paint22_linear_40_830)"/>
<path d="M280.62 154.408C277.861 152.442 273.87 152.961 271.706 155.567C269.542 158.173 270.024 161.879 272.783 163.845C275.542 165.811 279.532 165.292 281.696 162.686C283.86 160.08 283.378 156.374 280.62 154.408ZM294.076 136.409L275.765 158.459L277.638 159.794L295.95 137.743L294.076 136.409Z" fill="url(#paint23_linear_40_830)"/>
<path d="M274.87 111.633L295.013 137.076" stroke="url(#paint24_linear_40_830)" stroke-width="2.3"/>
<path d="M247.403 143.861L295.013 137.076" stroke="url(#paint25_linear_40_830)" stroke-width="2.3"/>
<path d="M247.403 143.861L276.701 159.127" stroke="url(#paint26_linear_40_830)" stroke-width="2.3"/>
<path d="M247.403 143.861L276.701 159.127" stroke="url(#paint27_linear_40_830)" stroke-width="2.3"/>
<path d="M201.623 126.899L225.429 171" stroke="url(#paint28_linear_40_830)" stroke-width="2.3"/>
<path d="M247.403 143.861L186.974 154.038" stroke="url(#paint29_linear_40_830)" stroke-width="2.3"/>
<path d="M166.831 108.241L186.974 154.038" stroke="url(#paint30_linear_40_830)" stroke-width="2.3"/>
<path d="M175.987 69.2278L192.468 94.6709" stroke="url(#paint31_linear_40_830)" stroke-width="2.3"/>
<path d="M165 106.544L201.623 126.899" stroke="url(#paint32_linear_40_830)" stroke-width="2.3"/>
<path d="M225.429 169.304L245.571 167.608" stroke="url(#paint33_linear_40_830)" stroke-width="2.3"/>
<path d="M275.851 80.1354C272.495 79.6692 269.337 82.002 268.795 85.3458C268.254 88.6896 270.535 91.7782 273.89 92.2443C277.245 92.7105 280.404 90.3778 280.945 87.034C281.487 83.6902 279.206 80.6016 275.851 80.1354ZM279.225 52.1076L273.731 86.0316L276.009 86.3482L281.503 52.4241L279.225 52.1076Z" fill="url(#paint34_linear_40_830)"/>
<path d="M304.169 89.5823L274.87 86.1899" stroke="url(#paint35_linear_40_830)" stroke-width="2.3"/>
<path d="M245.419 54.9576C243.917 57.9936 245.227 61.5279 248.345 62.8517C251.463 64.1754 255.208 62.7873 256.711 59.7513C258.213 56.7153 256.903 53.181 253.785 51.8573C250.667 50.5335 246.922 51.9216 245.419 54.9576ZM206.607 39.727L250.555 58.3852L251.575 56.3237L207.627 37.6655L206.607 39.727Z" fill="url(#paint36_linear_40_830)"/>
</g>
<g filter="url(#filter5_f_40_830)">
<path d="M196.963 74.4669C199.87 74.9421 202.673 72.9817 203.225 70.0882C203.776 67.1948 201.866 64.4639 198.959 63.9887C196.052 63.5136 193.249 65.474 192.698 68.3675C192.146 71.2609 194.056 73.9918 196.963 74.4669ZM202.456 45.6315C205.363 46.1067 208.167 44.1463 208.718 41.2528C209.269 38.3593 207.36 35.6285 204.453 35.1533C201.546 34.6781 198.742 36.6385 198.191 39.532C197.64 42.4255 199.55 45.1563 202.456 45.6315ZM198.948 69.3892L204.441 40.5537L202.468 40.2311L196.974 69.0665L198.948 69.3892Z" fill="url(#paint37_linear_40_830)"/>
<path d="M223.765 67.8218C223.952 70.7614 226.488 73.0145 229.429 72.8543C232.37 72.694 234.603 70.1811 234.416 67.2415C234.23 64.3019 231.694 62.0488 228.753 62.209C225.812 62.3693 223.579 64.8822 223.765 67.8218ZM198.024 70.2258L229.154 68.5296L229.028 66.5337L197.898 68.2299L198.024 70.2258Z" fill="url(#paint38_linear_40_830)"/>
<path d="M200.234 121.75C197.364 122.414 195.66 125.258 196.428 128.102C197.195 130.946 200.143 132.712 203.013 132.048C205.883 131.383 207.587 128.539 206.819 125.696C206.052 122.852 203.103 121.085 200.234 121.75ZM191.493 93.2003L200.649 127.124L202.598 126.673L193.442 92.7491L191.493 93.2003Z" fill="url(#paint39_linear_40_830)"/>
<path d="M189.507 149.345C186.835 148.107 183.534 149.205 182.135 151.797C180.735 154.389 181.768 157.493 184.441 158.731C187.113 159.969 190.414 158.871 191.814 156.279C193.213 153.687 192.18 150.583 189.507 149.345ZM200.716 126.478L186.067 153.618L187.881 154.458L202.531 127.319L200.716 126.478Z" fill="url(#paint40_linear_40_830)"/>
<path d="M189.507 149.345C186.835 148.107 183.534 149.205 182.135 151.797C180.735 154.389 181.768 157.493 184.441 158.731C187.113 159.969 190.414 158.871 191.814 156.279C193.213 153.687 192.18 150.583 189.507 149.345ZM200.716 126.478L186.067 153.618L187.881 154.458L202.531 127.319L200.716 126.478Z" fill="url(#paint41_linear_40_830)"/>
<path d="M193.67 87.7786C190.78 87.2051 187.9 89.0666 187.236 91.9363C186.572 94.806 188.376 97.5973 191.266 98.1708C194.155 98.7443 197.035 96.8828 197.699 94.013C198.363 91.1433 196.559 88.352 193.67 87.7786ZM196.98 69.0332L191.487 92.78L193.448 93.1694L198.942 69.4225L196.98 69.0332Z" fill="url(#paint42_linear_40_830)"/>
<path d="M181.333 69C181.333 66.0545 178.946 63.6667 176 63.6667C173.054 63.6667 170.667 66.0545 170.667 69C170.667 71.9455 173.054 74.3333 176 74.3333C178.946 74.3333 181.333 71.9455 181.333 69ZM198 68H176V70H198V68Z" fill="url(#paint43_linear_40_830)"/>
<path d="M171.414 105.512C169.734 103.092 166.321 102.352 163.79 103.859C161.26 105.366 160.569 108.549 162.249 110.969C163.928 113.389 167.341 114.129 169.872 112.622C172.403 111.115 173.093 107.932 171.414 105.512ZM191.897 92.1532L166.261 107.419L167.401 109.062L193.038 93.7962L191.897 92.1532Z" fill="url(#paint44_linear_40_830)"/>
<path d="M232.328 40.4257C234.386 42.5329 237.885 42.7073 240.142 40.8153C242.4 38.9233 242.561 35.6814 240.503 33.5743C238.445 31.4671 234.947 31.2927 232.689 33.1847C230.431 35.0767 230.27 38.3186 232.328 40.4257ZM198.66 69.9432L237.114 37.7154L235.717 36.2846L197.262 68.5125L198.66 69.9432Z" fill="url(#paint45_linear_40_830)"/>
<path d="M239.367 41.4423C241.926 39.9837 242.679 36.8123 241.049 34.3588C239.419 31.9054 236.023 31.099 233.464 32.5577C230.905 34.0163 230.152 37.1877 231.782 39.6412C233.412 42.0946 236.808 42.901 239.367 41.4423ZM251.934 58.5554L237.284 36.5048L235.547 37.4952L250.196 59.5458L251.934 58.5554Z" fill="url(#paint46_linear_40_830)"/>
<path d="M256.73 38.3441C256.504 41.2809 258.703 43.8193 261.642 44.0138C264.581 44.2082 267.147 41.9851 267.374 39.0483C267.6 36.1115 265.401 33.5731 262.462 33.3787C259.523 33.1842 256.957 35.4073 256.73 38.3441ZM236.339 37.997L261.975 39.6932L262.129 37.6992L236.492 36.003L236.339 37.997Z" fill="url(#paint47_linear_40_830)"/>
<path d="M276.079 49.0905C274.153 51.3197 274.511 54.5485 276.878 56.3022C279.244 58.0559 282.723 57.6704 284.649 55.4412C286.574 53.212 286.216 49.9832 283.85 48.2295C281.483 46.4758 278.004 46.8613 276.079 49.0905ZM261.398 39.453L279.71 53.0227L281.017 51.509L262.706 37.9394L261.398 39.453Z" fill="url(#paint48_linear_40_830)"/>
<path d="M301.301 85.086C298.717 86.5002 297.906 89.6598 299.49 92.143C301.075 94.6263 304.453 95.4929 307.037 94.0786C309.621 92.6644 310.431 89.5048 308.847 87.0216C307.263 84.5383 303.884 83.6717 301.301 85.086ZM279.486 52.746L303.292 90.0624L305.046 89.1022L281.241 51.7857L279.486 52.746Z" fill="url(#paint49_linear_40_830)"/>
<path d="M279.222 108.55C277.347 106.279 273.878 105.817 271.475 107.52C269.071 109.223 268.643 112.444 270.518 114.716C272.393 116.987 275.862 117.448 278.266 115.746C280.669 114.043 281.097 110.822 279.222 108.55ZM305.363 88.8111L274.233 110.862L275.507 112.404L306.637 90.3535L305.363 88.8111Z" fill="url(#paint50_linear_40_830)"/>
<path d="M269.351 126.969C266.537 126.1 263.447 127.642 262.449 130.414C261.452 133.185 262.925 136.137 265.74 137.006C268.554 137.875 271.644 136.332 272.641 133.561C273.639 130.789 272.166 127.838 269.351 126.969ZM273.915 111.338L266.59 131.692L268.501 132.282L275.826 111.928L273.915 111.338Z" fill="url(#paint51_linear_40_830)"/>
<path d="M245.981 162.29C243.042 162.096 240.476 164.319 240.25 167.256C240.023 170.192 242.222 172.731 245.161 172.925C248.1 173.12 250.667 170.897 250.893 167.96C251.12 165.023 248.921 162.485 245.981 162.29ZM246.405 143.795L244.574 167.542L246.569 167.674L248.4 143.927L246.405 143.795Z" fill="url(#paint52_linear_40_830)"/>
<path d="M228.915 165.267C226.548 163.514 223.069 163.899 221.144 166.128C219.218 168.358 219.576 171.586 221.943 173.34C224.309 175.094 227.788 174.708 229.714 172.479C231.639 170.25 231.281 167.021 228.915 165.267ZM246.599 143.265L224.625 168.708L226.232 169.899L248.206 144.456L246.599 143.265Z" fill="url(#paint53_linear_40_830)"/>
<path d="M251.997 141.152C250.329 138.725 246.92 137.969 244.383 139.465C241.845 140.961 241.14 144.141 242.808 146.569C244.476 148.997 247.885 149.752 250.423 148.257C252.96 146.761 253.665 143.58 251.997 141.152ZM266.979 131.163L246.836 143.037L247.969 144.685L268.112 132.812L266.979 131.163Z" fill="url(#paint54_linear_40_830)"/>
<path d="M296.023 131.839C293.117 131.358 290.309 133.313 289.751 136.206C289.194 139.098 291.097 141.832 294.003 142.313C296.909 142.794 299.717 140.839 300.275 137.946C300.832 135.054 298.929 132.32 296.023 131.839ZM303.182 89.4191L294.026 136.913L296 137.239L305.155 89.7455L303.182 89.4191Z" fill="url(#paint55_linear_40_830)"/>
<path d="M280.109 155.024C277.71 153.314 274.24 153.766 272.358 156.032C270.476 158.298 270.895 161.52 273.294 163.23C275.693 164.939 279.163 164.487 281.045 162.221C282.927 159.955 282.507 156.733 280.109 155.024ZM294.199 136.496L275.887 158.546L277.516 159.707L295.827 137.656L294.199 136.496Z" fill="url(#paint56_linear_40_830)"/>
<path d="M274.87 111.633L295.013 137.076" stroke="url(#paint57_linear_40_830)" stroke-width="2"/>
<path d="M247.403 143.861L295.013 137.076" stroke="url(#paint58_linear_40_830)" stroke-width="2"/>
<path d="M247.403 143.861L276.701 159.127" stroke="url(#paint59_linear_40_830)" stroke-width="2"/>
<path d="M247.403 143.861L276.701 159.127" stroke="url(#paint60_linear_40_830)" stroke-width="2"/>
<path d="M201.623 126.899L225.429 171" stroke="url(#paint61_linear_40_830)" stroke-width="2"/>
<path d="M247.403 143.861L186.974 154.038" stroke="url(#paint62_linear_40_830)" stroke-width="2"/>
<path d="M166.831 108.241L186.974 154.038" stroke="url(#paint63_linear_40_830)" stroke-width="2"/>
<path d="M175.987 69.2278L192.468 94.6709" stroke="url(#paint64_linear_40_830)" stroke-width="2"/>
<path d="M165 106.544L201.623 126.899" stroke="url(#paint65_linear_40_830)" stroke-width="2"/>
<path d="M225.429 169.304L245.571 167.608" stroke="url(#paint66_linear_40_830)" stroke-width="2"/>
<path d="M275.723 80.9251C272.805 80.5198 270.058 82.5483 269.588 85.4559C269.117 88.3635 271.1 91.0493 274.018 91.4546C276.935 91.86 279.682 89.8315 280.153 86.9239C280.624 84.0162 278.64 81.3305 275.723 80.9251ZM279.373 52.1282L273.88 86.0523L275.861 86.3275L281.354 52.4035L279.373 52.1282Z" fill="url(#paint67_linear_40_830)"/>
<path d="M304.169 89.5823L274.87 86.1899" stroke="url(#paint68_linear_40_830)" stroke-width="2"/>
<path d="M246.156 55.2702C244.849 57.9103 245.988 60.9835 248.7 62.1346C251.411 63.2857 254.668 62.0787 255.974 59.4387C257.281 56.7987 256.142 53.7254 253.43 52.5743C250.719 51.4232 247.462 52.6302 246.156 55.2702ZM206.673 39.5925L250.622 58.2507L251.508 56.4582L207.56 37.7999L206.673 39.5925Z" fill="url(#paint69_linear_40_830)"/>
</g>
</g>
<defs>
<filter id="filter0_d_40_830" x="-1" y="0" width="683" height="216" filterUnits="userSpaceOnUse" color-interpolation-filters="sRGB">
<feFlood flood-opacity="0" result="BackgroundImageFix"/>
<feColorMatrix in="SourceAlpha" type="matrix" values="0 0 0 0 0 0 0 0 0 0 0 0 0 0 0 0 0 0 127 0" result="hardAlpha"/>
<feOffset dy="4"/>
<feGaussianBlur stdDeviation="2"/>
<feComposite in2="hardAlpha" operator="out"/>
<feColorMatrix type="matrix" values="0 0 0 0 0 0 0 0 0 0 0 0 0 0 0 0 0 0 0.25 0"/>
<feBlend mode="normal" in2="BackgroundImageFix" result="effect1_dropShadow_40_830"/>
<feBlend mode="normal" in="SourceGraphic" in2="effect1_dropShadow_40_830" result="shape"/>
</filter>
<filter id="filter1_f_40_830" x="314.671" y="7.94376" width="374.676" height="190.295" filterUnits="userSpaceOnUse" color-interpolation-filters="sRGB">
<feFlood flood-opacity="0" result="BackgroundImageFix"/>
<feBlend mode="normal" in="SourceGraphic" in2="BackgroundImageFix" result="shape"/>
<feGaussianBlur stdDeviation="8.5" result="effect1_foregroundBlur_40_830"/>
</filter>
<filter id="filter2_dddddd_40_830" x="4.94995" y="24.9438" width="139.429" height="156.295" filterUnits="userSpaceOnUse" color-interpolation-filters="sRGB">
<feFlood flood-opacity="0" result="BackgroundImageFix"/>
<feColorMatrix in="SourceAlpha" type="matrix" values="0 0 0 0 0 0 0 0 0 0 0 0 0 0 0 0 0 0 127 0" result="hardAlpha"/>
<feOffset/>
<feColorMatrix type="matrix" values="0 0 0 0 1 0 0 0 0 1 0 0 0 0 1 0 0 0 1 0"/>
<feBlend mode="normal" in2="BackgroundImageFix" result="effect1_dropShadow_40_830"/>
<feColorMatrix in="SourceAlpha" type="matrix" values="0 0 0 0 0 0 0 0 0 0 0 0 0 0 0 0 0 0 127 0" result="hardAlpha"/>
<feOffset/>
<feColorMatrix type="matrix" values="0 0 0 0 1 0 0 0 0 1 0 0 0 0 1 0 0 0 1 0"/>
<feBlend mode="normal" in2="effect1_dropShadow_40_830" result="effect2_dropShadow_40_830"/>
<feColorMatrix in="SourceAlpha" type="matrix" values="0 0 0 0 0 0 0 0 0 0 0 0 0 0 0 0 0 0 127 0" result="hardAlpha"/>
<feOffset/>
<feColorMatrix type="matrix" values="0 0 0 0 1 0 0 0 0 1 0 0 0 0 1 0 0 0 1 0"/>
<feBlend mode="normal" in2="effect2_dropShadow_40_830" result="effect3_dropShadow_40_830"/>
<feColorMatrix in="SourceAlpha" type="matrix" values="0 0 0 0 0 0 0 0 0 0 0 0 0 0 0 0 0 0 127 0" result="hardAlpha"/>
<feOffset/>
<feColorMatrix type="matrix" values="0 0 0 0 1 0 0 0 0 1 0 0 0 0 1 0 0 0 1 0"/>
<feBlend mode="normal" in2="effect3_dropShadow_40_830" result="effect4_dropShadow_40_830"/>
<feColorMatrix in="SourceAlpha" type="matrix" values="0 0 0 0 0 0 0 0 0 0 0 0 0 0 0 0 0 0 127 0" result="hardAlpha"/>
<feOffset/>
<feColorMatrix type="matrix" values="0 0 0 0 1 0 0 0 0 1 0 0 0 0 1 0 0 0 1 0"/>
<feBlend mode="normal" in2="effect4_dropShadow_40_830" result="effect5_dropShadow_40_830"/>
<feColorMatrix in="SourceAlpha" type="matrix" values="0 0 0 0 0 0 0 0 0 0 0 0 0 0 0 0 0 0 127 0" result="hardAlpha"/>
<feOffset/>
<feColorMatrix type="matrix" values="0 0 0 0 1 0 0 0 0 1 0 0 0 0 1 0 0 0 1 0"/>
<feBlend mode="normal" in2="effect5_dropShadow_40_830" result="effect6_dropShadow_40_830"/>
<feBlend mode="normal" in="SourceGraphic" in2="effect6_dropShadow_40_830" result="shape"/>
</filter>
<filter id="filter3_f_40_830" x="-12.05" y="7.94376" width="173.429" height="190.295" filterUnits="userSpaceOnUse" color-interpolation-filters="sRGB">
<feFlood flood-opacity="0" result="BackgroundImageFix"/>
<feBlend mode="normal" in="SourceGraphic" in2="BackgroundImageFix" result="shape"/>
<feGaussianBlur stdDeviation="8.5" result="effect1_foregroundBlur_40_830"/>
</filter>
<filter id="filter4_d_40_830" x="156.506" y="31.0557" width="157.975" height="152.154" filterUnits="userSpaceOnUse" color-interpolation-filters="sRGB">
<feFlood flood-opacity="0" result="BackgroundImageFix"/>
<feColorMatrix in="SourceAlpha" type="matrix" values="0 0 0 0 0 0 0 0 0 0 0 0 0 0 0 0 0 0 127 0" result="hardAlpha"/>
<feOffset dy="4"/>
<feGaussianBlur stdDeviation="2"/>
<feComposite in2="hardAlpha" operator="out"/>
<feColorMatrix type="matrix" values="0 0 0 0 0 0 0 0 0 0 0 0 0 0 0 0 0 0 0.25 0"/>
<feBlend mode="normal" in2="BackgroundImageFix" result="effect1_dropShadow_40_830"/>
<feBlend mode="normal" in="SourceGraphic" in2="effect1_dropShadow_40_830" result="shape"/>
</filter>
<filter id="filter5_f_40_830" x="152.331" y="22.831" width="166.326" height="160.609" filterUnits="userSpaceOnUse" color-interpolation-filters="sRGB">
<feFlood flood-opacity="0" result="BackgroundImageFix"/>
<feBlend mode="normal" in="SourceGraphic" in2="BackgroundImageFix" result="shape"/>
<feGaussianBlur stdDeviation="4.5" result="effect1_foregroundBlur_40_830"/>
</filter>
<linearGradient id="paint0_linear_40_830" x1="337.888" y1="139.398" x2="635.26" y2="140.468" gradientUnits="userSpaceOnUse">
<stop offset="0.0465045" stop-color="#14BFFB"/>
<stop offset="1" stop-color="#D300E5"/>
</linearGradient>
<linearGradient id="paint1_linear_40_830" x1="337.888" y1="139.398" x2="635.26" y2="140.468" gradientUnits="userSpaceOnUse">
<stop offset="0.0465045" stop-color="#14BFFB"/>
<stop offset="1" stop-color="#D300E5"/>
</linearGradient>
<linearGradient id="paint2_linear_40_830" x1="8.64923" y1="123" x2="129.615" y2="123.196" gradientUnits="userSpaceOnUse">
<stop offset="0.0465045" stop-color="#14BFFB"/>
</linearGradient>
<linearGradient id="paint3_linear_40_830" x1="8.64923" y1="123" x2="129.615" y2="123.196" gradientUnits="userSpaceOnUse">
<stop offset="0.0465045" stop-color="#14BFFB"/>
</linearGradient>
<linearGradient id="paint4_linear_40_830" x1="198.455" y1="69.3085" x2="203.188" y2="40.3489" gradientUnits="userSpaceOnUse">
<stop stop-color="#25F5FF"/>
<stop offset="1" stop-color="#792787"/>
</linearGradient>
<linearGradient id="paint5_linear_40_830" x1="197.993" y1="69.7268" x2="229.105" y2="67.7511" gradientUnits="userSpaceOnUse">
<stop stop-color="#25F5FF"/>
<stop offset="1" stop-color="#792787"/>
</linearGradient>
<linearGradient id="paint6_linear_40_830" x1="191.98" y1="93.0875" x2="199.902" y2="127.297" gradientUnits="userSpaceOnUse">
<stop stop-color="#25F5FF"/>
<stop offset="1" stop-color="#792787"/>
</linearGradient>
<linearGradient id="paint7_linear_40_830" x1="201.17" y1="126.689" x2="188.233" y2="154.621" gradientUnits="userSpaceOnUse">
<stop stop-color="#25F5FF"/>
<stop offset="1" stop-color="#792787"/>
</linearGradient>
<linearGradient id="paint8_linear_40_830" x1="201.17" y1="126.689" x2="188.233" y2="154.621" gradientUnits="userSpaceOnUse">
<stop stop-color="#25F5FF"/>
<stop offset="1" stop-color="#792787"/>
</linearGradient>
<linearGradient id="paint9_linear_40_830" x1="197.471" y1="69.1305" x2="192.728" y2="93.0263" gradientUnits="userSpaceOnUse">
<stop stop-color="#25F5FF"/>
<stop offset="1" stop-color="#792787"/>
</linearGradient>
<linearGradient id="paint10_linear_40_830" x1="198" y1="68.5" x2="176" y2="68.5" gradientUnits="userSpaceOnUse">
<stop stop-color="#25F5FF"/>
<stop offset="1" stop-color="#792787"/>
</linearGradient>
<linearGradient id="paint11_linear_40_830" x1="192.182" y1="92.5639" x2="167.729" y2="109.535" gradientUnits="userSpaceOnUse">
<stop stop-color="#25F5FF"/>
<stop offset="1" stop-color="#792787"/>
</linearGradient>
<linearGradient id="paint12_linear_40_830" x1="198.31" y1="69.5855" x2="234.099" y2="34.6286" gradientUnits="userSpaceOnUse">
<stop stop-color="#25F5FF"/>
<stop offset="1" stop-color="#792787"/>
</linearGradient>
<linearGradient id="paint13_linear_40_830" x1="251.499" y1="58.803" x2="238.42" y2="35.8576" gradientUnits="userSpaceOnUse">
<stop stop-color="#25F5FF"/>
<stop offset="1" stop-color="#792787"/>
</linearGradient>
<linearGradient id="paint14_linear_40_830" x1="236.377" y1="37.4985" x2="261.992" y2="39.4737" gradientUnits="userSpaceOnUse">
<stop stop-color="#25F5FF"/>
<stop offset="1" stop-color="#792787"/>
</linearGradient>
<linearGradient id="paint15_linear_40_830" x1="261.725" y1="39.0746" x2="278.926" y2="53.9303" gradientUnits="userSpaceOnUse">
<stop stop-color="#25F5FF"/>
<stop offset="1" stop-color="#792787"/>
</linearGradient>
<linearGradient id="paint16_linear_40_830" x1="279.925" y1="52.5059" x2="301.13" y2="91.2458" gradientUnits="userSpaceOnUse">
<stop stop-color="#25F5FF"/>
<stop offset="1" stop-color="#792787"/>
</linearGradient>
<linearGradient id="paint17_linear_40_830" x1="305.682" y1="89.1967" x2="276.343" y2="113.417" gradientUnits="userSpaceOnUse">
<stop stop-color="#25F5FF"/>
<stop offset="1" stop-color="#792787"/>
</linearGradient>
<linearGradient id="paint18_linear_40_830" x1="274.392" y1="111.485" x2="268.017" y2="132.133" gradientUnits="userSpaceOnUse">
<stop stop-color="#25F5FF"/>
<stop offset="1" stop-color="#792787"/>
</linearGradient>
<linearGradient id="paint19_linear_40_830" x1="246.904" y1="143.828" x2="245.331" y2="167.592" gradientUnits="userSpaceOnUse">
<stop stop-color="#25F5FF"/>
<stop offset="1" stop-color="#792787"/>
</linearGradient>
<linearGradient id="paint20_linear_40_830" x1="247.001" y1="143.563" x2="227.041" y2="170.499" gradientUnits="userSpaceOnUse">
<stop stop-color="#25F5FF"/>
<stop offset="1" stop-color="#792787"/>
</linearGradient>
<linearGradient id="paint21_linear_40_830" x1="267.262" y1="131.575" x2="248.036" y2="144.783" gradientUnits="userSpaceOnUse">
<stop stop-color="#25F5FF"/>
<stop offset="1" stop-color="#792787"/>
</linearGradient>
<linearGradient id="paint22_linear_40_830" x1="303.676" y1="89.5007" x2="295.785" y2="137.204" gradientUnits="userSpaceOnUse">
<stop stop-color="#25F5FF"/>
<stop offset="1" stop-color="#792787"/>
</linearGradient>
<linearGradient id="paint23_linear_40_830" x1="294.606" y1="136.786" x2="278.018" y2="160.065" gradientUnits="userSpaceOnUse">
<stop stop-color="#25F5FF"/>
<stop offset="1" stop-color="#792787"/>
</linearGradient>
<linearGradient id="paint24_linear_40_830" x1="274.457" y1="111.914" x2="292.642" y2="138.686" gradientUnits="userSpaceOnUse">
<stop stop-color="#25F5FF"/>
<stop offset="1" stop-color="#792787"/>
</linearGradient>
<linearGradient id="paint25_linear_40_830" x1="247.485" y1="144.354" x2="294.913" y2="136.477" gradientUnits="userSpaceOnUse">
<stop stop-color="#25F5FF"/>
<stop offset="1" stop-color="#792787"/>
</linearGradient>
<linearGradient id="paint26_linear_40_830" x1="247.143" y1="144.288" x2="275.321" y2="161.399" gradientUnits="userSpaceOnUse">
<stop stop-color="#25F5FF"/>
<stop offset="1" stop-color="#792787"/>
</linearGradient>
<linearGradient id="paint27_linear_40_830" x1="247.143" y1="144.288" x2="275.321" y2="161.399" gradientUnits="userSpaceOnUse">
<stop stop-color="#25F5FF"/>
<stop offset="1" stop-color="#792787"/>
</linearGradient>
<linearGradient id="paint28_linear_40_830" x1="201.17" y1="127.109" x2="222.192" y2="172.499" gradientUnits="userSpaceOnUse">
<stop stop-color="#25F5FF"/>
<stop offset="1" stop-color="#792787"/>
</linearGradient>
<linearGradient id="paint29_linear_40_830" x1="247.306" y1="143.37" x2="187.196" y2="155.169" gradientUnits="userSpaceOnUse">
<stop stop-color="#25F5FF"/>
<stop offset="1" stop-color="#792787"/>
</linearGradient>
<linearGradient id="paint30_linear_40_830" x1="166.363" y1="108.417" x2="184.003" y2="155.159" gradientUnits="userSpaceOnUse">
<stop stop-color="#25F5FF"/>
<stop offset="1" stop-color="#792787"/>
</linearGradient>
<linearGradient id="paint31_linear_40_830" x1="175.55" y1="69.4707" x2="190.243" y2="95.9073" gradientUnits="userSpaceOnUse">
<stop stop-color="#25F5FF"/>
<stop offset="1" stop-color="#792787"/>
</linearGradient>
<linearGradient id="paint32_linear_40_830" x1="164.728" y1="106.964" x2="199.815" y2="129.691" gradientUnits="userSpaceOnUse">
<stop stop-color="#25F5FF"/>
<stop offset="1" stop-color="#792787"/>
</linearGradient>
<linearGradient id="paint33_linear_40_830" x1="225.477" y1="169.801" x2="245.593" y2="167.827" gradientUnits="userSpaceOnUse">
<stop stop-color="#25F5FF"/>
<stop offset="1" stop-color="#792787"/>
</linearGradient>
<linearGradient id="paint34_linear_40_830" x1="279.868" y1="52.197" x2="275.14" y2="86.2274" gradientUnits="userSpaceOnUse">
<stop stop-color="#25F5FF"/>
<stop offset="1" stop-color="#792787"/>
</linearGradient>
<linearGradient id="paint35_linear_40_830" x1="304.236" y1="89.0868" x2="275.011" y2="85.1431" gradientUnits="userSpaceOnUse">
<stop stop-color="#25F5FF"/>
<stop offset="1" stop-color="#792787"/>
</linearGradient>
<linearGradient id="paint36_linear_40_830" x1="206.895" y1="39.1444" x2="249.616" y2="60.2828" gradientUnits="userSpaceOnUse">
<stop stop-color="#25F5FF"/>
<stop offset="1" stop-color="#792787"/>
</linearGradient>
<linearGradient id="paint37_linear_40_830" x1="198.455" y1="69.3085" x2="203.188" y2="40.3489" gradientUnits="userSpaceOnUse">
<stop stop-color="#25F5FF"/>
<stop offset="1" stop-color="#792787"/>
</linearGradient>
<linearGradient id="paint38_linear_40_830" x1="197.993" y1="69.7268" x2="229.105" y2="67.7511" gradientUnits="userSpaceOnUse">
<stop stop-color="#25F5FF"/>
<stop offset="1" stop-color="#792787"/>
</linearGradient>
<linearGradient id="paint39_linear_40_830" x1="191.98" y1="93.0875" x2="199.902" y2="127.297" gradientUnits="userSpaceOnUse">
<stop stop-color="#25F5FF"/>
<stop offset="1" stop-color="#792787"/>
</linearGradient>
<linearGradient id="paint40_linear_40_830" x1="201.17" y1="126.689" x2="188.233" y2="154.621" gradientUnits="userSpaceOnUse">
<stop stop-color="#25F5FF"/>
<stop offset="1" stop-color="#792787"/>
</linearGradient>
<linearGradient id="paint41_linear_40_830" x1="201.17" y1="126.689" x2="188.233" y2="154.621" gradientUnits="userSpaceOnUse">
<stop stop-color="#25F5FF"/>
<stop offset="1" stop-color="#792787"/>
</linearGradient>
<linearGradient id="paint42_linear_40_830" x1="197.471" y1="69.1305" x2="192.728" y2="93.0263" gradientUnits="userSpaceOnUse">
<stop stop-color="#25F5FF"/>
<stop offset="1" stop-color="#792787"/>
</linearGradient>
<linearGradient id="paint43_linear_40_830" x1="198" y1="68.5" x2="176" y2="68.5" gradientUnits="userSpaceOnUse">
<stop stop-color="#25F5FF"/>
<stop offset="1" stop-color="#792787"/>
</linearGradient>
<linearGradient id="paint44_linear_40_830" x1="192.182" y1="92.5639" x2="167.729" y2="109.535" gradientUnits="userSpaceOnUse">
<stop stop-color="#25F5FF"/>
<stop offset="1" stop-color="#792787"/>
</linearGradient>
<linearGradient id="paint45_linear_40_830" x1="198.31" y1="69.5855" x2="234.099" y2="34.6286" gradientUnits="userSpaceOnUse">
<stop stop-color="#25F5FF"/>
<stop offset="1" stop-color="#792787"/>
</linearGradient>
<linearGradient id="paint46_linear_40_830" x1="251.499" y1="58.803" x2="238.42" y2="35.8576" gradientUnits="userSpaceOnUse">
<stop stop-color="#25F5FF"/>
<stop offset="1" stop-color="#792787"/>
</linearGradient>
<linearGradient id="paint47_linear_40_830" x1="236.377" y1="37.4985" x2="261.992" y2="39.4737" gradientUnits="userSpaceOnUse">
<stop stop-color="#25F5FF"/>
<stop offset="1" stop-color="#792787"/>
</linearGradient>
<linearGradient id="paint48_linear_40_830" x1="261.725" y1="39.0746" x2="278.926" y2="53.9303" gradientUnits="userSpaceOnUse">
<stop stop-color="#25F5FF"/>
<stop offset="1" stop-color="#792787"/>
</linearGradient>
<linearGradient id="paint49_linear_40_830" x1="279.925" y1="52.5059" x2="301.13" y2="91.2458" gradientUnits="userSpaceOnUse">
<stop stop-color="#25F5FF"/>
<stop offset="1" stop-color="#792787"/>
</linearGradient>
<linearGradient id="paint50_linear_40_830" x1="305.682" y1="89.1967" x2="276.343" y2="113.417" gradientUnits="userSpaceOnUse">
<stop stop-color="#25F5FF"/>
<stop offset="1" stop-color="#792787"/>
</linearGradient>
<linearGradient id="paint51_linear_40_830" x1="274.392" y1="111.485" x2="268.017" y2="132.133" gradientUnits="userSpaceOnUse">
<stop stop-color="#25F5FF"/>
<stop offset="1" stop-color="#792787"/>
</linearGradient>
<linearGradient id="paint52_linear_40_830" x1="246.904" y1="143.828" x2="245.331" y2="167.592" gradientUnits="userSpaceOnUse">
<stop stop-color="#25F5FF"/>
<stop offset="1" stop-color="#792787"/>
</linearGradient>
<linearGradient id="paint53_linear_40_830" x1="247.001" y1="143.563" x2="227.041" y2="170.499" gradientUnits="userSpaceOnUse">
<stop stop-color="#25F5FF"/>
<stop offset="1" stop-color="#792787"/>
</linearGradient>
<linearGradient id="paint54_linear_40_830" x1="267.262" y1="131.575" x2="248.036" y2="144.783" gradientUnits="userSpaceOnUse">
<stop stop-color="#25F5FF"/>
<stop offset="1" stop-color="#792787"/>
</linearGradient>
<linearGradient id="paint55_linear_40_830" x1="303.676" y1="89.5007" x2="295.785" y2="137.204" gradientUnits="userSpaceOnUse">
<stop stop-color="#25F5FF"/>
<stop offset="1" stop-color="#792787"/>
</linearGradient>
<linearGradient id="paint56_linear_40_830" x1="294.606" y1="136.786" x2="278.018" y2="160.065" gradientUnits="userSpaceOnUse">
<stop stop-color="#25F5FF"/>
<stop offset="1" stop-color="#792787"/>
</linearGradient>
<linearGradient id="paint57_linear_40_830" x1="274.457" y1="111.914" x2="292.642" y2="138.686" gradientUnits="userSpaceOnUse">
<stop stop-color="#25F5FF"/>
<stop offset="1" stop-color="#792787"/>
</linearGradient>
<linearGradient id="paint58_linear_40_830" x1="247.485" y1="144.354" x2="294.913" y2="136.477" gradientUnits="userSpaceOnUse">
<stop stop-color="#25F5FF"/>
<stop offset="1" stop-color="#792787"/>
</linearGradient>
<linearGradient id="paint59_linear_40_830" x1="247.143" y1="144.288" x2="275.321" y2="161.399" gradientUnits="userSpaceOnUse">
<stop stop-color="#25F5FF"/>
<stop offset="1" stop-color="#792787"/>
</linearGradient>
<linearGradient id="paint60_linear_40_830" x1="247.143" y1="144.288" x2="275.321" y2="161.399" gradientUnits="userSpaceOnUse">
<stop stop-color="#25F5FF"/>
<stop offset="1" stop-color="#792787"/>
</linearGradient>
<linearGradient id="paint61_linear_40_830" x1="201.17" y1="127.109" x2="222.192" y2="172.499" gradientUnits="userSpaceOnUse">
<stop stop-color="#25F5FF"/>
<stop offset="1" stop-color="#792787"/>
</linearGradient>
<linearGradient id="paint62_linear_40_830" x1="247.306" y1="143.37" x2="187.196" y2="155.169" gradientUnits="userSpaceOnUse">
<stop stop-color="#25F5FF"/>
<stop offset="1" stop-color="#792787"/>
</linearGradient>
<linearGradient id="paint63_linear_40_830" x1="166.363" y1="108.417" x2="184.003" y2="155.159" gradientUnits="userSpaceOnUse">
<stop stop-color="#25F5FF"/>
<stop offset="1" stop-color="#792787"/>
</linearGradient>
<linearGradient id="paint64_linear_40_830" x1="175.55" y1="69.4707" x2="190.243" y2="95.9073" gradientUnits="userSpaceOnUse">
<stop stop-color="#25F5FF"/>
<stop offset="1" stop-color="#792787"/>
</linearGradient>
<linearGradient id="paint65_linear_40_830" x1="164.728" y1="106.964" x2="199.815" y2="129.691" gradientUnits="userSpaceOnUse">
<stop stop-color="#25F5FF"/>
<stop offset="1" stop-color="#792787"/>
</linearGradient>
<linearGradient id="paint66_linear_40_830" x1="225.477" y1="169.801" x2="245.593" y2="167.827" gradientUnits="userSpaceOnUse">
<stop stop-color="#25F5FF"/>
<stop offset="1" stop-color="#792787"/>
</linearGradient>
<linearGradient id="paint67_linear_40_830" x1="279.868" y1="52.197" x2="275.14" y2="86.2274" gradientUnits="userSpaceOnUse">
<stop stop-color="#25F5FF"/>
<stop offset="1" stop-color="#792787"/>
</linearGradient>
<linearGradient id="paint68_linear_40_830" x1="304.236" y1="89.0868" x2="275.011" y2="85.1431" gradientUnits="userSpaceOnUse">
<stop stop-color="#25F5FF"/>
<stop offset="1" stop-color="#792787"/>
</linearGradient>
<linearGradient id="paint69_linear_40_830" x1="206.895" y1="39.1444" x2="249.616" y2="60.2828" gradientUnits="userSpaceOnUse">
<stop stop-color="#25F5FF"/>
<stop offset="1" stop-color="#792787"/>
</linearGradient>
<clipPath id="clip0_40_830">
<rect width="675" height="208" fill="white" transform="translate(3)"/>
</clipPath>
</defs>
</svg>
