<svg width="512" height="512" viewBox="0 0 512 512" fill="none" xmlns="http://www.w3.org/2000/svg">
<g clip-path="url(#clip0_32_944)">
<path d="M119.115 132.42L140.676 27.5317" stroke="url(#paint0_linear_32_944)" stroke-width="2.3"/>
<path d="M119.115 132.42L165.669 199.787" stroke="url(#paint1_linear_32_944)" stroke-width="2.3"/>
<path d="M87.1198 235.674L165.669 199.787" stroke="url(#paint2_linear_32_944)" stroke-width="2.3"/>
<path d="M87.1198 235.674L165.669 321.801" stroke="url(#paint3_linear_32_944)" stroke-width="2.3"/>
<path d="M119.114 132.42L87.1197 235.674" stroke="url(#paint4_linear_32_944)" stroke-width="2.3"/>
<path d="M179.951 486.879L169.239 325.39" stroke="url(#paint5_linear_32_944)" stroke-width="2.3"/>
<path d="M369.183 189.021L408.458 74.1844" stroke="url(#paint6_linear_32_944)" stroke-width="2.3"/>
<path d="M65.6972 404.34L165.669 325.39" stroke="url(#paint7_linear_32_944)" stroke-width="2.3"/>
<path d="M119.254 131.603H40.7042" stroke="url(#paint8_linear_32_944)" stroke-width="2.3"/>
<path d="M83.5493 235.674L19.2817 278.738" stroke="url(#paint9_linear_32_944)" stroke-width="2.3"/>
<path d="M79.9789 303.858L19.2817 278.738" stroke="url(#paint10_linear_32_944)" stroke-width="2.3"/>
<path d="M119.115 132.42L256.413 16.7658" stroke="url(#paint11_linear_32_944)" stroke-width="2.3"/>
<path d="M265.641 124.426L256.413 16.766" stroke="url(#paint12_linear_32_944)" stroke-width="2.3"/>
<path d="M347.76 23.9432L254.93 16.7659" stroke="url(#paint13_linear_32_944)" stroke-width="2.3"/>
<path d="M347.946 22.8532L413.327 71.5498" stroke="url(#paint14_linear_32_944)" stroke-width="2.3"/>
<path d="M497.718 206.965L412.028 70.5958" stroke="url(#paint15_linear_32_944)" stroke-width="2.3"/>
<path d="M497.718 206.965L419.169 267.972" stroke="url(#paint16_linear_32_944)" stroke-width="2.3"/>
<path d="M358.472 321.801L415.599 267.972" stroke="url(#paint17_linear_32_944)" stroke-width="2.3"/>
<path d="M262.07 368.454L301.345 497.645" stroke="url(#paint18_linear_32_944)" stroke-width="2.3"/>
<path d="M262.07 368.454L179.951 486.879" stroke="url(#paint19_linear_32_944)" stroke-width="2.3"/>
<path d="M498.321 205.465L465.631 375.904" stroke="url(#paint20_linear_32_944)" stroke-width="2.3"/>
<path d="M358.472 325.39L394.176 465.348" stroke="url(#paint21_linear_32_944)" stroke-width="2.3"/>
<path d="M358.472 325.39L465.631 375.904" stroke="url(#paint22_linear_32_944)" stroke-width="2.3"/>
<path d="M265.641 372.042L465.631 375.904" stroke="url(#paint23_linear_32_944)" stroke-width="2.3"/>
<path d="M262.07 368.454L394.176 465.347" stroke="url(#paint24_linear_32_944)" stroke-width="2.3"/>
<path d="M262.07 368.454L69.2676 411.518" stroke="url(#paint25_linear_32_944)" stroke-width="2.3"/>
<path d="M76.4084 303.858L65.6972 404.34" stroke="url(#paint26_linear_32_944)" stroke-width="2.3"/>
<path d="M87.1198 235.674L40.7043 131.603" stroke="url(#paint27_linear_32_944)" stroke-width="2.3"/>
<path d="M79.9789 303.858L169.239 325.39" stroke="url(#paint28_linear_32_944)" stroke-width="2.3"/>
<path d="M183.521 486.879L301.345 497.645" stroke="#792787" stroke-width="2.3"/>
<path d="M265.641 131.603L412.028 74.1844" stroke="url(#paint29_linear_32_944)" stroke-width="2.3"/>
<path d="M498.321 205.465L372.753 192.61" stroke="url(#paint30_linear_32_944)" stroke-width="2.3"/>
<path d="M262.07 131.603L140.676 27.5319" stroke="url(#paint31_linear_32_944)" stroke-width="2.3"/>
<ellipse cx="140.676" cy="31.1205" rx="14.2817" ry="14.3546" fill="#792887"/>
<ellipse cx="37.1338" cy="124.426" rx="14.2817" ry="14.3546" fill="#792887"/>
<ellipse cx="169.239" cy="196.199" rx="14.2817" ry="14.3546" fill="#792887"/>
<ellipse cx="254.93" cy="20.3546" rx="14.2817" ry="14.3546" fill="#792887"/>
<ellipse cx="254.93" cy="20.3546" rx="14.2817" ry="14.3546" fill="#792887"/>
<ellipse cx="412.028" cy="70.5957" rx="14.2817" ry="14.3546" fill="#792887"/>
<ellipse cx="19.2817" cy="275.149" rx="14.2817" ry="14.3546" fill="#792887"/>
<ellipse cx="169.239" cy="321.801" rx="14.2817" ry="14.3546" fill="#792887"/>
<ellipse cx="65.6972" cy="404.34" rx="14.2817" ry="14.3546" fill="#792887"/>
<ellipse cx="358.472" cy="196.199" rx="14.2817" ry="14.3546" fill="#792887"/>
<ellipse cx="415.599" cy="267.972" rx="14.2817" ry="14.3546" fill="#792887"/>
<ellipse cx="458.444" cy="372.043" rx="14.2817" ry="14.3546" fill="#792887"/>
<ellipse cx="390.606" cy="465.348" rx="14.2817" ry="14.3546" fill="#792887"/>
<ellipse cx="297.775" cy="497.645" rx="14.2817" ry="14.3546" fill="#792887"/>
<ellipse cx="179.951" cy="483.291" rx="14.2817" ry="14.3546" fill="#792887"/>
<ellipse cx="262.07" cy="368.454" rx="14.2817" ry="14.3546" fill="#27F2FD"/>
<ellipse cx="262.07" cy="131.603" rx="14.2817" ry="14.3546" fill="#27F2FD"/>
<ellipse cx="497.718" cy="206.964" rx="14.2817" ry="14.3546" fill="#27F2FD"/>
<ellipse cx="348.282" cy="27.3546" rx="14.2817" ry="14.3546" fill="#27F2FD"/>
<ellipse cx="119.253" cy="131.603" rx="14.2817" ry="14.3546" fill="#27F2FD"/>
<ellipse cx="87.1197" cy="235.674" rx="14.2817" ry="14.3546" fill="#27F2FD"/>
<ellipse cx="79.9789" cy="303.858" rx="14.2817" ry="14.3546" fill="#27F2FD"/>
<ellipse cx="358.472" cy="321.801" rx="14.2817" ry="14.3546" fill="#27F2FD"/>
<g filter="url(#filter0_f_32_944)">
<path d="M119.115 132.42L140.676 27.5317" stroke="url(#paint32_linear_32_944)" stroke-width="2.3"/>
<path d="M119.115 132.42L165.669 199.787" stroke="url(#paint33_linear_32_944)" stroke-width="2.3"/>
<path d="M87.1198 235.674L165.669 199.787" stroke="url(#paint34_linear_32_944)" stroke-width="2.3"/>
<path d="M87.1198 235.674L165.669 321.801" stroke="url(#paint35_linear_32_944)" stroke-width="2.3"/>
<path d="M119.114 132.42L87.1197 235.674" stroke="url(#paint36_linear_32_944)" stroke-width="2.3"/>
<path d="M179.951 486.879L169.239 325.39" stroke="url(#paint37_linear_32_944)" stroke-width="2.3"/>
<path d="M369.183 189.021L408.458 74.1844" stroke="url(#paint38_linear_32_944)" stroke-width="2.3"/>
<path d="M65.6972 404.34L165.669 325.39" stroke="url(#paint39_linear_32_944)" stroke-width="2.3"/>
<path d="M119.254 131.603H40.7042" stroke="url(#paint40_linear_32_944)" stroke-width="2.3"/>
<path d="M83.5493 235.674L19.2817 278.738" stroke="url(#paint41_linear_32_944)" stroke-width="2.3"/>
<path d="M79.9789 303.858L19.2817 278.738" stroke="url(#paint42_linear_32_944)" stroke-width="2.3"/>
<path d="M119.115 132.42L256.413 16.7658" stroke="url(#paint43_linear_32_944)" stroke-width="2.3"/>
<path d="M265.641 124.426L256.413 16.766" stroke="url(#paint44_linear_32_944)" stroke-width="2.3"/>
<path d="M347.76 23.9432L254.93 16.7659" stroke="url(#paint45_linear_32_944)" stroke-width="2.3"/>
<path d="M347.946 22.8532L413.327 71.5498" stroke="url(#paint46_linear_32_944)" stroke-width="2.3"/>
<path d="M497.718 206.965L412.028 70.5958" stroke="url(#paint47_linear_32_944)" stroke-width="2.3"/>
<path d="M497.718 206.965L419.169 267.972" stroke="url(#paint48_linear_32_944)" stroke-width="2.3"/>
<path d="M358.472 321.801L415.599 267.972" stroke="url(#paint49_linear_32_944)" stroke-width="2.3"/>
<path d="M262.07 368.454L301.345 497.645" stroke="url(#paint50_linear_32_944)" stroke-width="2.3"/>
<path d="M262.07 368.454L179.951 486.879" stroke="url(#paint51_linear_32_944)" stroke-width="2.3"/>
<path d="M498.321 205.465L465.631 375.904" stroke="url(#paint52_linear_32_944)" stroke-width="2.3"/>
<path d="M358.472 325.39L394.176 465.348" stroke="url(#paint53_linear_32_944)" stroke-width="2.3"/>
<path d="M358.472 325.39L465.631 375.904" stroke="url(#paint54_linear_32_944)" stroke-width="2.3"/>
<path d="M265.641 372.042L465.631 375.904" stroke="url(#paint55_linear_32_944)" stroke-width="2.3"/>
<path d="M262.07 368.454L394.176 465.347" stroke="url(#paint56_linear_32_944)" stroke-width="2.3"/>
<path d="M262.07 368.454L69.2676 411.518" stroke="url(#paint57_linear_32_944)" stroke-width="2.3"/>
<path d="M76.4084 303.858L65.6972 404.34" stroke="url(#paint58_linear_32_944)" stroke-width="2.3"/>
<path d="M87.1198 235.674L40.7043 131.603" stroke="url(#paint59_linear_32_944)" stroke-width="2.3"/>
<path d="M79.9789 303.858L169.239 325.39" stroke="url(#paint60_linear_32_944)" stroke-width="2.3"/>
<path d="M183.521 486.879L301.345 497.645" stroke="#792787" stroke-width="2.3"/>
<path d="M265.641 131.603L412.028 74.1844" stroke="url(#paint61_linear_32_944)" stroke-width="2.3"/>
<path d="M498.321 205.465L372.753 192.61" stroke="url(#paint62_linear_32_944)" stroke-width="2.3"/>
<path d="M262.07 131.603L140.676 27.5319" stroke="url(#paint63_linear_32_944)" stroke-width="2.3"/>
<ellipse cx="140.676" cy="31.1205" rx="14.2817" ry="14.3546" fill="#792887"/>
<ellipse cx="37.1338" cy="124.426" rx="14.2817" ry="14.3546" fill="#792887"/>
<ellipse cx="169.239" cy="196.199" rx="14.2817" ry="14.3546" fill="#792887"/>
<ellipse cx="254.93" cy="20.3546" rx="14.2817" ry="14.3546" fill="#792887"/>
<ellipse cx="254.93" cy="20.3546" rx="14.2817" ry="14.3546" fill="#792887"/>
<ellipse cx="412.028" cy="70.5957" rx="14.2817" ry="14.3546" fill="#792887"/>
<ellipse cx="19.2817" cy="275.149" rx="14.2817" ry="14.3546" fill="#792887"/>
<ellipse cx="169.239" cy="321.801" rx="14.2817" ry="14.3546" fill="#792887"/>
<ellipse cx="65.6972" cy="404.34" rx="14.2817" ry="14.3546" fill="#792887"/>
<ellipse cx="358.472" cy="196.199" rx="14.2817" ry="14.3546" fill="#792887"/>
<ellipse cx="415.599" cy="267.972" rx="14.2817" ry="14.3546" fill="#792887"/>
<ellipse cx="458.444" cy="372.043" rx="14.2817" ry="14.3546" fill="#792887"/>
<ellipse cx="390.606" cy="465.348" rx="14.2817" ry="14.3546" fill="#792887"/>
<ellipse cx="297.775" cy="497.645" rx="14.2817" ry="14.3546" fill="#792887"/>
<ellipse cx="179.951" cy="483.291" rx="14.2817" ry="14.3546" fill="#792887"/>
<ellipse cx="262.07" cy="368.454" rx="14.2817" ry="14.3546" fill="#27F2FD"/>
<ellipse cx="262.07" cy="131.603" rx="14.2817" ry="14.3546" fill="#27F2FD"/>
<ellipse cx="348.282" cy="20.3546" rx="14.2817" ry="14.3546" fill="#27F2FD"/>
<ellipse cx="119.253" cy="131.603" rx="14.2817" ry="14.3546" fill="#27F2FD"/>
<ellipse cx="87.1197" cy="235.674" rx="14.2817" ry="14.3546" fill="#27F2FD"/>
<ellipse cx="79.9789" cy="303.858" rx="14.2817" ry="14.3546" fill="#27F2FD"/>
<ellipse cx="358.472" cy="321.801" rx="14.2817" ry="14.3546" fill="#27F2FD"/>
</g>
</g>
<defs>
<filter id="filter0_f_32_944" x="-19" y="-18" width="542.455" height="554" filterUnits="userSpaceOnUse" color-interpolation-filters="sRGB">
<feFlood flood-opacity="0" result="BackgroundImageFix"/>
<feBlend mode="normal" in="SourceGraphic" in2="BackgroundImageFix" result="shape"/>
<feGaussianBlur stdDeviation="12" result="effect1_foregroundBlur_32_944"/>
</filter>
<linearGradient id="paint0_linear_32_944" x1="119.604" y1="132.522" x2="129.901" y2="28.8805" gradientUnits="userSpaceOnUse">
<stop stop-color="#25F5FF"/>
<stop offset="0.639459" stop-color="#792787"/>
</linearGradient>
<linearGradient id="paint1_linear_32_944" x1="118.705" y1="132.707" x2="165.579" y2="199.85" gradientUnits="userSpaceOnUse">
<stop stop-color="#25F5FF"/>
<stop offset="1" stop-color="#792787"/>
</linearGradient>
<linearGradient id="paint2_linear_32_944" x1="87.3258" y1="236.129" x2="166.012" y2="200.545" gradientUnits="userSpaceOnUse">
<stop stop-color="#25F5FF"/>
<stop offset="1" stop-color="#792787"/>
</linearGradient>
<linearGradient id="paint3_linear_32_944" x1="86.752" y1="236.013" x2="135.472" y2="293.577" gradientUnits="userSpaceOnUse">
<stop stop-color="#25F5FF"/>
<stop offset="1" stop-color="#792787"/>
</linearGradient>
<linearGradient id="paint4_linear_32_944" x1="118.637" y1="132.271" x2="86.3442" y2="235.431" gradientUnits="userSpaceOnUse">
<stop stop-color="#25F5FF"/>
<stop offset="0.5" stop-color="#792787"/>
<stop offset="1" stop-color="#25F5FF"/>
</linearGradient>
<linearGradient id="paint5_linear_32_944" x1="180.45" y1="486.846" x2="164.34" y2="322.276" gradientUnits="userSpaceOnUse">
<stop stop-color="#792787"/>
<stop offset="0.360512" stop-color="#25F5FF"/>
<stop offset="0.720869" stop-color="#792787"/>
</linearGradient>
<linearGradient id="paint6_linear_32_944" x1="369.656" y1="189.185" x2="409.29" y2="74.4717" gradientUnits="userSpaceOnUse">
<stop stop-color="#792787"/>
<stop offset="0.5" stop-color="#25F5FF"/>
<stop offset="1" stop-color="#792787"/>
</linearGradient>
<linearGradient id="paint7_linear_32_944" x1="66.0051" y1="404.734" x2="166.365" y2="326.281" gradientUnits="userSpaceOnUse">
<stop stop-color="#792787"/>
<stop offset="0.395886" stop-color="#25F5FF"/>
<stop offset="0.717818" stop-color="#792787"/>
</linearGradient>
<linearGradient id="paint8_linear_32_944" x1="119.254" y1="131.103" x2="40.7042" y2="131.103" gradientUnits="userSpaceOnUse">
<stop stop-color="#25F5FF"/>
<stop offset="1" stop-color="#792787"/>
</linearGradient>
<linearGradient id="paint9_linear_32_944" x1="83.2729" y1="235.257" x2="18.8043" y2="278.018" gradientUnits="userSpaceOnUse">
<stop stop-color="#25F5FF"/>
<stop offset="1" stop-color="#792787"/>
</linearGradient>
<linearGradient id="paint10_linear_32_944" x1="80.1684" y1="303.395" x2="19.3819" y2="278.493" gradientUnits="userSpaceOnUse">
<stop stop-color="#25F5FF"/>
<stop offset="1" stop-color="#792787"/>
</linearGradient>
<linearGradient id="paint11_linear_32_944" x1="119.463" y1="132.779" x2="247.88" y2="7.98441" gradientUnits="userSpaceOnUse">
<stop stop-color="#25F5FF"/>
<stop offset="1" stop-color="#792787"/>
</linearGradient>
<linearGradient id="paint12_linear_32_944" x1="266.139" y1="124.382" x2="256.818" y2="16.7309" gradientUnits="userSpaceOnUse">
<stop stop-color="#25F5FF"/>
<stop offset="1" stop-color="#792787"/>
</linearGradient>
<linearGradient id="paint13_linear_32_944" x1="347.799" y1="23.4447" x2="254.962" y2="16.3397" gradientUnits="userSpaceOnUse">
<stop stop-color="#25F5FF"/>
<stop offset="1" stop-color="#792787"/>
</linearGradient>
<linearGradient id="paint14_linear_32_944" x1="347.62" y1="23.2324" x2="409.302" y2="76.2335" gradientUnits="userSpaceOnUse">
<stop stop-color="#25F5FF"/>
<stop offset="1" stop-color="#792787"/>
</linearGradient>
<linearGradient id="paint15_linear_32_944" x1="498.14" y1="206.697" x2="411.825" y2="70.7248" gradientUnits="userSpaceOnUse">
<stop stop-color="#25F5FF"/>
<stop offset="1" stop-color="#792787"/>
</linearGradient>
<linearGradient id="paint16_linear_32_944" x1="497.414" y1="206.568" x2="418.565" y2="267.187" gradientUnits="userSpaceOnUse">
<stop stop-color="#25F5FF"/>
<stop offset="1" stop-color="#792787"/>
</linearGradient>
<linearGradient id="paint17_linear_32_944" x1="358.813" y1="322.167" x2="416.212" y2="268.629" gradientUnits="userSpaceOnUse">
<stop stop-color="#25F5FF"/>
<stop offset="1" stop-color="#792787"/>
</linearGradient>
<linearGradient id="paint18_linear_32_944" x1="261.592" y1="368.601" x2="301.235" y2="497.679" gradientUnits="userSpaceOnUse">
<stop stop-color="#25F5FF"/>
<stop offset="1" stop-color="#792787"/>
</linearGradient>
<linearGradient id="paint19_linear_32_944" x1="261.661" y1="368.167" x2="178.977" y2="486.197" gradientUnits="userSpaceOnUse">
<stop stop-color="#25F5FF"/>
<stop offset="1" stop-color="#792787"/>
</linearGradient>
<linearGradient id="paint20_linear_32_944" x1="497.828" y1="205.383" x2="469.375" y2="376.526" gradientUnits="userSpaceOnUse">
<stop stop-color="#25F5FF"/>
<stop offset="0.5" stop-color="#4F8EC3"/>
<stop offset="1" stop-color="#792787"/>
</linearGradient>
<linearGradient id="paint21_linear_32_944" x1="357.988" y1="325.515" x2="394.035" y2="465.384" gradientUnits="userSpaceOnUse">
<stop stop-color="#25F5FF"/>
<stop offset="1" stop-color="#792787"/>
</linearGradient>
<linearGradient id="paint22_linear_32_944" x1="358.26" y1="325.843" x2="465.616" y2="375.937" gradientUnits="userSpaceOnUse">
<stop stop-color="#25F5FF"/>
<stop offset="1" stop-color="#792787"/>
</linearGradient>
<linearGradient id="paint23_linear_32_944" x1="265.631" y1="372.542" x2="465.622" y2="376.365" gradientUnits="userSpaceOnUse">
<stop stop-color="#25F5FF"/>
<stop offset="1" stop-color="#792787"/>
</linearGradient>
<linearGradient id="paint24_linear_32_944" x1="261.777" y1="368.858" x2="394.349" y2="465.109" gradientUnits="userSpaceOnUse">
<stop stop-color="#25F5FF"/>
<stop offset="1" stop-color="#792787"/>
</linearGradient>
<linearGradient id="paint25_linear_32_944" x1="261.962" y1="367.966" x2="69.0677" y2="410.613" gradientUnits="userSpaceOnUse">
<stop stop-color="#25F5FF"/>
<stop offset="1" stop-color="#792787"/>
</linearGradient>
<linearGradient id="paint26_linear_32_944" x1="75.9113" y1="303.805" x2="65.0917" y2="404.275" gradientUnits="userSpaceOnUse">
<stop stop-color="#25F5FF"/>
<stop offset="1" stop-color="#792787"/>
</linearGradient>
<linearGradient id="paint27_linear_32_944" x1="87.5756" y1="235.468" x2="40.7651" y2="131.575" gradientUnits="userSpaceOnUse">
<stop stop-color="#25F5FF"/>
<stop offset="1" stop-color="#792787"/>
</linearGradient>
<linearGradient id="paint28_linear_32_944" x1="79.8628" y1="304.344" x2="169.173" y2="325.67" gradientUnits="userSpaceOnUse">
<stop stop-color="#25F5FF"/>
<stop offset="0.619007" stop-color="#792787"/>
</linearGradient>
<linearGradient id="paint29_linear_32_944" x1="265.822" y1="132.069" x2="412.405" y2="75.1561" gradientUnits="userSpaceOnUse">
<stop stop-color="#25F5FF"/>
<stop offset="1" stop-color="#792787"/>
</linearGradient>
<linearGradient id="paint30_linear_32_944" x1="498.371" y1="204.968" x2="372.791" y2="192.241" gradientUnits="userSpaceOnUse">
<stop stop-color="#25F5FF"/>
<stop offset="1" stop-color="#792787"/>
</linearGradient>
<linearGradient id="paint31_linear_32_944" x1="262.394" y1="131.222" x2="140.479" y2="27.7638" gradientUnits="userSpaceOnUse">
<stop stop-color="#25F5FF"/>
<stop offset="1" stop-color="#792787"/>
</linearGradient>
<linearGradient id="paint32_linear_32_944" x1="119.604" y1="132.522" x2="129.901" y2="28.8805" gradientUnits="userSpaceOnUse">
<stop stop-color="#25F5FF"/>
<stop offset="0.639459" stop-color="#792787"/>
</linearGradient>
<linearGradient id="paint33_linear_32_944" x1="118.705" y1="132.707" x2="165.579" y2="199.85" gradientUnits="userSpaceOnUse">
<stop stop-color="#25F5FF"/>
<stop offset="1" stop-color="#792787"/>
</linearGradient>
<linearGradient id="paint34_linear_32_944" x1="87.3258" y1="236.129" x2="166.012" y2="200.545" gradientUnits="userSpaceOnUse">
<stop stop-color="#25F5FF"/>
<stop offset="1" stop-color="#792787"/>
</linearGradient>
<linearGradient id="paint35_linear_32_944" x1="86.752" y1="236.013" x2="135.472" y2="293.577" gradientUnits="userSpaceOnUse">
<stop stop-color="#25F5FF"/>
<stop offset="1" stop-color="#792787"/>
</linearGradient>
<linearGradient id="paint36_linear_32_944" x1="118.637" y1="132.271" x2="86.3442" y2="235.431" gradientUnits="userSpaceOnUse">
<stop stop-color="#25F5FF"/>
<stop offset="0.5" stop-color="#792787"/>
<stop offset="1" stop-color="#25F5FF"/>
</linearGradient>
<linearGradient id="paint37_linear_32_944" x1="180.45" y1="486.846" x2="164.34" y2="322.276" gradientUnits="userSpaceOnUse">
<stop stop-color="#792787"/>
<stop offset="0.360512" stop-color="#25F5FF"/>
<stop offset="0.720869" stop-color="#792787"/>
</linearGradient>
<linearGradient id="paint38_linear_32_944" x1="369.656" y1="189.185" x2="409.29" y2="74.4717" gradientUnits="userSpaceOnUse">
<stop stop-color="#792787"/>
<stop offset="0.5" stop-color="#25F5FF"/>
<stop offset="1" stop-color="#792787"/>
</linearGradient>
<linearGradient id="paint39_linear_32_944" x1="66.0051" y1="404.734" x2="166.365" y2="326.281" gradientUnits="userSpaceOnUse">
<stop stop-color="#792787"/>
<stop offset="0.395886" stop-color="#25F5FF"/>
<stop offset="0.717818" stop-color="#792787"/>
</linearGradient>
<linearGradient id="paint40_linear_32_944" x1="119.254" y1="131.103" x2="40.7042" y2="131.103" gradientUnits="userSpaceOnUse">
<stop stop-color="#25F5FF"/>
<stop offset="1" stop-color="#792787"/>
</linearGradient>
<linearGradient id="paint41_linear_32_944" x1="83.2729" y1="235.257" x2="18.8043" y2="278.018" gradientUnits="userSpaceOnUse">
<stop stop-color="#25F5FF"/>
<stop offset="1" stop-color="#792787"/>
</linearGradient>
<linearGradient id="paint42_linear_32_944" x1="80.1684" y1="303.395" x2="19.3819" y2="278.493" gradientUnits="userSpaceOnUse">
<stop stop-color="#25F5FF"/>
<stop offset="1" stop-color="#792787"/>
</linearGradient>
<linearGradient id="paint43_linear_32_944" x1="119.463" y1="132.779" x2="247.88" y2="7.98441" gradientUnits="userSpaceOnUse">
<stop stop-color="#25F5FF"/>
<stop offset="1" stop-color="#792787"/>
</linearGradient>
<linearGradient id="paint44_linear_32_944" x1="266.139" y1="124.382" x2="256.818" y2="16.7309" gradientUnits="userSpaceOnUse">
<stop stop-color="#25F5FF"/>
<stop offset="1" stop-color="#792787"/>
</linearGradient>
<linearGradient id="paint45_linear_32_944" x1="347.799" y1="23.4447" x2="254.962" y2="16.3397" gradientUnits="userSpaceOnUse">
<stop stop-color="#25F5FF"/>
<stop offset="1" stop-color="#792787"/>
</linearGradient>
<linearGradient id="paint46_linear_32_944" x1="347.62" y1="23.2324" x2="409.302" y2="76.2335" gradientUnits="userSpaceOnUse">
<stop stop-color="#25F5FF"/>
<stop offset="1" stop-color="#792787"/>
</linearGradient>
<linearGradient id="paint47_linear_32_944" x1="498.14" y1="206.697" x2="411.825" y2="70.7248" gradientUnits="userSpaceOnUse">
<stop stop-color="#25F5FF"/>
<stop offset="1" stop-color="#792787"/>
</linearGradient>
<linearGradient id="paint48_linear_32_944" x1="497.414" y1="206.568" x2="418.565" y2="267.187" gradientUnits="userSpaceOnUse">
<stop stop-color="#25F5FF"/>
<stop offset="1" stop-color="#792787"/>
</linearGradient>
<linearGradient id="paint49_linear_32_944" x1="358.813" y1="322.167" x2="416.212" y2="268.629" gradientUnits="userSpaceOnUse">
<stop stop-color="#25F5FF"/>
<stop offset="1" stop-color="#792787"/>
</linearGradient>
<linearGradient id="paint50_linear_32_944" x1="261.592" y1="368.601" x2="301.235" y2="497.679" gradientUnits="userSpaceOnUse">
<stop stop-color="#25F5FF"/>
<stop offset="1" stop-color="#792787"/>
</linearGradient>
<linearGradient id="paint51_linear_32_944" x1="261.661" y1="368.167" x2="178.977" y2="486.197" gradientUnits="userSpaceOnUse">
<stop stop-color="#25F5FF"/>
<stop offset="1" stop-color="#792787"/>
</linearGradient>
<linearGradient id="paint52_linear_32_944" x1="497.828" y1="205.383" x2="469.375" y2="376.526" gradientUnits="userSpaceOnUse">
<stop stop-color="#25F5FF"/>
<stop offset="0.5" stop-color="#4F8EC3"/>
<stop offset="1" stop-color="#792787"/>
</linearGradient>
<linearGradient id="paint53_linear_32_944" x1="357.988" y1="325.515" x2="394.035" y2="465.384" gradientUnits="userSpaceOnUse">
<stop stop-color="#25F5FF"/>
<stop offset="1" stop-color="#792787"/>
</linearGradient>
<linearGradient id="paint54_linear_32_944" x1="358.26" y1="325.843" x2="465.616" y2="375.937" gradientUnits="userSpaceOnUse">
<stop stop-color="#25F5FF"/>
<stop offset="1" stop-color="#792787"/>
</linearGradient>
<linearGradient id="paint55_linear_32_944" x1="265.631" y1="372.542" x2="465.622" y2="376.365" gradientUnits="userSpaceOnUse">
<stop stop-color="#25F5FF"/>
<stop offset="1" stop-color="#792787"/>
</linearGradient>
<linearGradient id="paint56_linear_32_944" x1="261.777" y1="368.858" x2="394.349" y2="465.109" gradientUnits="userSpaceOnUse">
<stop stop-color="#25F5FF"/>
<stop offset="1" stop-color="#792787"/>
</linearGradient>
<linearGradient id="paint57_linear_32_944" x1="261.962" y1="367.966" x2="69.0677" y2="410.613" gradientUnits="userSpaceOnUse">
<stop stop-color="#25F5FF"/>
<stop offset="1" stop-color="#792787"/>
</linearGradient>
<linearGradient id="paint58_linear_32_944" x1="75.9113" y1="303.805" x2="65.0917" y2="404.275" gradientUnits="userSpaceOnUse">
<stop stop-color="#25F5FF"/>
<stop offset="1" stop-color="#792787"/>
</linearGradient>
<linearGradient id="paint59_linear_32_944" x1="87.5756" y1="235.468" x2="40.7651" y2="131.575" gradientUnits="userSpaceOnUse">
<stop stop-color="#25F5FF"/>
<stop offset="1" stop-color="#792787"/>
</linearGradient>
<linearGradient id="paint60_linear_32_944" x1="79.8628" y1="304.344" x2="169.173" y2="325.67" gradientUnits="userSpaceOnUse">
<stop stop-color="#25F5FF"/>
<stop offset="0.619007" stop-color="#792787"/>
</linearGradient>
<linearGradient id="paint61_linear_32_944" x1="265.822" y1="132.069" x2="412.405" y2="75.1561" gradientUnits="userSpaceOnUse">
<stop stop-color="#25F5FF"/>
<stop offset="1" stop-color="#792787"/>
</linearGradient>
<linearGradient id="paint62_linear_32_944" x1="498.371" y1="204.968" x2="372.791" y2="192.241" gradientUnits="userSpaceOnUse">
<stop stop-color="#25F5FF"/>
<stop offset="1" stop-color="#792787"/>
</linearGradient>
<linearGradient id="paint63_linear_32_944" x1="262.394" y1="131.222" x2="140.479" y2="27.7638" gradientUnits="userSpaceOnUse">
<stop stop-color="#25F5FF"/>
<stop offset="1" stop-color="#792787"/>
</linearGradient>
<clipPath id="clip0_32_944">
<rect width="512" height="512" fill="white"/>
</clipPath>
</defs>
</svg>
